<svg width="793" height="277" viewBox="0 0 793 277" fill="none" xmlns="http://www.w3.org/2000/svg">
<rect width="793" height="277" fill="white"/>
<path d="M37.5 166.5V178V179L99.5 179.5C100.5 179 100 177 100 177C95.1667 173.667 84.9 166.6 82.5 165C80.1 163.4 76.1667 162.667 74.5 162.5H41.5C38.3 162.9 37.5 165.333 37.5 166.5Z" fill="#D2D32F"/>
<path d="M44.6637 175.013H48.8363C49.2775 175.013 49.7007 174.837 50.0127 174.525C50.3247 174.213 50.5 173.79 50.5 173.349V169.176C50.5 168.735 50.3247 168.312 50.0127 168C49.7007 167.688 49.2775 167.513 48.8363 167.513H44.6637C44.2225 167.513 43.7993 167.688 43.4873 168C43.1753 168.312 43 168.735 43 169.176V173.349C43 173.79 43.1753 174.213 43.4873 174.525C43.7993 174.837 44.2225 175.013 44.6637 175.013Z" fill="white"/>
<path d="M44.5106 175.48H49.2006C49.6966 175.48 50.1722 175.283 50.5229 174.933C50.8736 174.582 51.0706 174.106 51.0706 173.61V168.92C51.0706 168.424 50.8736 167.949 50.5229 167.598C50.1722 167.247 49.6966 167.05 49.2006 167.05H44.5106C44.0147 167.05 43.539 167.247 43.1883 167.598C42.8376 167.949 42.6406 168.424 42.6406 168.92V173.61C42.6406 174.106 42.8376 174.582 43.1883 174.933C43.539 175.283 44.0147 175.48 44.5106 175.48V175.48ZM43.6406 168.92C43.6406 168.69 43.7323 168.468 43.8954 168.305C44.0586 168.142 44.2799 168.05 44.5106 168.05H49.2006C49.4314 168.05 49.6527 168.142 49.8158 168.305C49.979 168.468 50.0706 168.69 50.0706 168.92V173.61C50.0706 173.841 49.979 174.062 49.8158 174.225C49.6527 174.389 49.4314 174.48 49.2006 174.48H44.5106C44.2799 174.48 44.0586 174.389 43.8954 174.225C43.7323 174.062 43.6406 173.841 43.6406 173.61V168.92Z" fill="black"/>
<path d="M56.1637 175H60.3363C60.7775 175 61.2007 174.825 61.5127 174.513C61.8247 174.201 62 173.778 62 173.336V169.164C62 168.722 61.8247 168.299 61.5127 167.987C61.2007 167.675 60.7775 167.5 60.3363 167.5H56.1637C55.7225 167.5 55.2993 167.675 54.9873 167.987C54.6753 168.299 54.5 168.722 54.5 169.164V173.336C54.5 173.778 54.6753 174.201 54.9873 174.513C55.2993 174.825 55.7225 175 56.1637 175Z" fill="white"/>
<path d="M55.8505 175.48H60.5105C61.0064 175.48 61.4821 175.283 61.8328 174.933C62.1834 174.582 62.3805 174.106 62.3805 173.61V168.92C62.3805 168.424 62.1834 167.949 61.8328 167.598C61.4821 167.247 61.0064 167.05 60.5105 167.05H55.8505C55.3545 167.05 54.8789 167.247 54.5282 167.598C54.1775 167.949 53.9805 168.424 53.9805 168.92V173.61C53.9805 174.106 54.1775 174.582 54.5282 174.933C54.8789 175.283 55.3545 175.48 55.8505 175.48V175.48ZM54.9805 168.92C54.9805 168.69 55.0721 168.468 55.2353 168.305C55.3984 168.142 55.6197 168.05 55.8505 168.05H60.5105C60.7412 168.05 60.9625 168.142 61.1257 168.305C61.2888 168.468 61.3805 168.69 61.3805 168.92V173.61C61.3805 173.841 61.2888 174.062 61.1257 174.225C60.9625 174.389 60.7412 174.48 60.5105 174.48H55.8505C55.6197 174.48 55.3984 174.389 55.2353 174.225C55.0721 174.062 54.9805 173.841 54.9805 173.61V168.92Z" fill="black"/>
<path d="M67.1832 174.95H71.3558C71.7971 174.95 72.2202 174.774 72.5322 174.462C72.8442 174.15 73.0195 173.727 73.0195 173.286V169.113C73.0195 168.672 72.8442 168.249 72.5322 167.937C72.2202 167.625 71.7971 167.45 71.3558 167.45H67.1832C66.742 167.45 66.3188 167.625 66.0068 167.937C65.6948 168.249 65.5195 168.672 65.5195 169.113V173.286C65.5195 173.727 65.6948 174.15 66.0068 174.462C66.3188 174.774 66.742 174.95 67.1832 174.95Z" fill="white"/>
<path d="M66.87 175.43H71.53C72.026 175.43 72.5016 175.233 72.8523 174.882C73.203 174.532 73.4 174.056 73.4 173.56V168.87C73.4 168.374 73.203 167.898 72.8523 167.548C72.5016 167.197 72.026 167 71.53 167H66.87C66.374 167 65.8984 167.197 65.5477 167.548C65.197 167.898 65 168.374 65 168.87V173.56C65 174.056 65.197 174.532 65.5477 174.882C65.8984 175.233 66.374 175.43 66.87 175.43V175.43ZM66 168.87C66 168.639 66.0917 168.418 66.2548 168.255C66.418 168.092 66.6393 168 66.87 168H71.53C71.7607 168 71.982 168.092 72.1452 168.255C72.3083 168.418 72.4 168.639 72.4 168.87V173.56C72.4 173.791 72.3083 174.012 72.1452 174.175C71.982 174.338 71.7607 174.43 71.53 174.43H66.87C66.6393 174.43 66.418 174.338 66.2548 174.175C66.0917 174.012 66 173.791 66 173.56V168.87Z" fill="black"/>
<path d="M87.5 173L78.5 167.5C77.7 167.1 77.5 168 77.5 168.5V173C77.5 174.2 78.5 174.833 79 175H87.5C89.5 174.6 88.3333 173.5 87.5 173Z" fill="white"/>
<path d="M78.7433 175.48H87.5133C87.8149 175.481 88.1087 175.384 88.3504 175.204C88.5922 175.024 88.7687 174.769 88.8533 174.48C88.9537 174.188 88.9531 173.87 88.8516 173.578C88.75 173.286 88.5534 173.037 88.2933 172.87L79.6233 167.28C79.3772 167.122 79.0931 167.033 78.8009 167.023C78.5086 167.013 78.219 167.081 77.9624 167.221C77.7057 167.361 77.4914 167.568 77.3421 167.819C77.1927 168.071 77.1136 168.358 77.1133 168.65V173.87C77.1185 174.299 77.2926 174.708 77.5977 175.01C77.9028 175.311 78.3144 175.48 78.7433 175.48V175.48ZM78.1133 168.68C78.1129 168.567 78.1435 168.456 78.2016 168.359C78.2598 168.262 78.3434 168.183 78.4433 168.13C78.5399 168.072 78.6505 168.041 78.7633 168.041C78.8761 168.041 78.9867 168.072 79.0833 168.13L87.7533 173.72C87.8279 173.766 87.8853 173.836 87.9166 173.918C87.9478 174 87.9512 174.09 87.9262 174.174C87.9011 174.258 87.8491 174.332 87.7781 174.383C87.7071 174.435 87.6211 174.462 87.5333 174.46H78.7433C78.5829 174.46 78.4284 174.399 78.3114 174.29C78.1943 174.18 78.1235 174.03 78.1133 173.87V168.68Z" fill="black"/>
<path d="M95.5131 181.24C95.5131 181.108 95.4604 180.98 95.3667 180.887C95.2729 180.793 95.1457 180.74 95.0131 180.74H42.2031C42.0705 180.74 41.9433 180.793 41.8496 180.887C41.7558 180.98 41.7031 181.108 41.7031 181.24C41.7031 181.373 41.7558 181.5 41.8496 181.594C41.9433 181.688 42.0705 181.74 42.2031 181.74H95.0031C95.0696 181.742 95.1357 181.73 95.1975 181.705C95.2594 181.681 95.3157 181.644 95.3632 181.597C95.4107 181.551 95.4484 181.495 95.4741 181.434C95.4999 181.373 95.5131 181.307 95.5131 181.24V181.24Z" fill="black"/>
<path d="M101.51 190.75H92.64C93.2474 190.182 93.6425 189.423 93.76 188.6H94.91C96.1648 188.602 97.3976 188.271 98.4823 187.641C99.567 187.01 100.465 186.102 101.083 185.01C101.702 183.919 102.019 182.682 102.003 181.428C101.986 180.173 101.637 178.945 100.99 177.87C100.977 177.838 100.96 177.808 100.94 177.78C100.426 176.946 99.7455 176.227 98.94 175.67L83.94 165.3C80.8435 163.147 77.1614 161.995 73.39 162H41.51C40.3139 162 39.1667 162.475 38.3209 163.321C37.4752 164.167 37 165.314 37 166.51V184.09C37.0026 185.284 37.479 186.429 38.3245 187.273C39.17 188.116 40.3156 188.59 41.51 188.59H45.37C45.4915 189.419 45.8939 190.182 46.51 190.75H37.51C37.3774 190.75 37.2502 190.803 37.1564 190.896C37.0627 190.99 37.01 191.117 37.01 191.25C37.01 191.383 37.0627 191.51 37.1564 191.604C37.2502 191.697 37.3774 191.75 37.51 191.75H101.51C101.643 191.75 101.77 191.697 101.864 191.604C101.957 191.51 102.01 191.383 102.01 191.25C102.01 191.117 101.957 190.99 101.864 190.896C101.77 190.803 101.643 190.75 101.51 190.75ZM41.51 162.99H73.44C77.0142 162.981 80.5049 164.07 83.44 166.11L98.44 176.48C98.8392 176.788 99.1986 177.144 99.51 177.54H38.01V166.54C38.0047 166.077 38.0913 165.617 38.2647 165.187C38.4381 164.757 38.6949 164.366 39.0203 164.036C39.3457 163.706 39.7332 163.443 40.1606 163.264C40.5879 163.084 41.0465 162.991 41.51 162.99ZM51.51 190.75C52.1174 190.182 52.5125 189.423 52.63 188.6H55.68C55.7975 189.423 56.1926 190.182 56.8 190.75H51.51ZM61.8 190.75C62.4074 190.182 62.8025 189.423 62.92 188.6H65.97C66.0883 189.423 66.4833 190.181 67.09 190.75H61.8ZM72.08 190.75C72.6874 190.182 73.0825 189.423 73.2 188.6H76.25C76.3675 189.423 76.7626 190.182 77.37 190.75H72.08ZM82.37 190.75C82.9868 190.182 83.3893 189.42 83.51 188.59H86.51C86.6275 189.413 87.0226 190.172 87.63 190.74L82.37 190.75Z" fill="black"/>
<path d="M114.5 166.5V178V179L176.5 179.5C177.5 179 177 177 177 177C172.167 173.667 161.9 166.6 159.5 165C157.1 163.4 153.167 162.667 151.5 162.5H118.5C115.3 162.9 114.5 165.333 114.5 166.5Z" fill="#D2D32F"/>
<path d="M121.664 175.013H125.836C126.278 175.013 126.701 174.837 127.013 174.525C127.325 174.213 127.5 173.79 127.5 173.349V169.176C127.5 168.735 127.325 168.312 127.013 168C126.701 167.688 126.278 167.513 125.836 167.513H121.664C121.222 167.513 120.799 167.688 120.487 168C120.175 168.312 120 168.735 120 169.176V173.349C120 173.79 120.175 174.213 120.487 174.525C120.799 174.837 121.222 175.013 121.664 175.013Z" fill="white"/>
<path d="M121.511 175.48H126.201C126.697 175.48 127.172 175.283 127.523 174.933C127.874 174.582 128.071 174.106 128.071 173.61V168.92C128.071 168.424 127.874 167.949 127.523 167.598C127.172 167.247 126.697 167.05 126.201 167.05H121.511C121.015 167.05 120.539 167.247 120.188 167.598C119.838 167.949 119.641 168.424 119.641 168.92V173.61C119.641 174.106 119.838 174.582 120.188 174.933C120.539 175.283 121.015 175.48 121.511 175.48V175.48ZM120.641 168.92C120.641 168.69 120.732 168.468 120.895 168.305C121.059 168.142 121.28 168.05 121.511 168.05H126.201C126.431 168.05 126.653 168.142 126.816 168.305C126.979 168.468 127.071 168.69 127.071 168.92V173.61C127.071 173.841 126.979 174.062 126.816 174.225C126.653 174.389 126.431 174.48 126.201 174.48H121.511C121.28 174.48 121.059 174.389 120.895 174.225C120.732 174.062 120.641 173.841 120.641 173.61V168.92Z" fill="black"/>
<path d="M133.164 175H137.336C137.778 175 138.201 174.825 138.513 174.513C138.825 174.201 139 173.778 139 173.336V169.164C139 168.722 138.825 168.299 138.513 167.987C138.201 167.675 137.778 167.5 137.336 167.5H133.164C132.722 167.5 132.299 167.675 131.987 167.987C131.675 168.299 131.5 168.722 131.5 169.164V173.336C131.5 173.778 131.675 174.201 131.987 174.513C132.299 174.825 132.722 175 133.164 175Z" fill="white"/>
<path d="M132.85 175.48H137.51C138.006 175.48 138.482 175.283 138.833 174.933C139.183 174.582 139.38 174.106 139.38 173.61V168.92C139.38 168.424 139.183 167.949 138.833 167.598C138.482 167.247 138.006 167.05 137.51 167.05H132.85C132.355 167.05 131.879 167.247 131.528 167.598C131.177 167.949 130.98 168.424 130.98 168.92V173.61C130.98 174.106 131.177 174.582 131.528 174.933C131.879 175.283 132.355 175.48 132.85 175.48V175.48ZM131.98 168.92C131.98 168.69 132.072 168.468 132.235 168.305C132.398 168.142 132.62 168.05 132.85 168.05H137.51C137.741 168.05 137.962 168.142 138.126 168.305C138.289 168.468 138.38 168.69 138.38 168.92V173.61C138.38 173.841 138.289 174.062 138.126 174.225C137.962 174.389 137.741 174.48 137.51 174.48H132.85C132.62 174.48 132.398 174.389 132.235 174.225C132.072 174.062 131.98 173.841 131.98 173.61V168.92Z" fill="black"/>
<path d="M144.183 174.95H148.356C148.797 174.95 149.22 174.774 149.532 174.462C149.844 174.15 150.02 173.727 150.02 173.286V169.113C150.02 168.672 149.844 168.249 149.532 167.937C149.22 167.625 148.797 167.45 148.356 167.45H144.183C143.742 167.45 143.319 167.625 143.007 167.937C142.695 168.249 142.52 168.672 142.52 169.113V173.286C142.52 173.727 142.695 174.15 143.007 174.462C143.319 174.774 143.742 174.95 144.183 174.95Z" fill="white"/>
<path d="M143.87 175.43H148.53C149.026 175.43 149.502 175.233 149.852 174.882C150.203 174.532 150.4 174.056 150.4 173.56V168.87C150.4 168.374 150.203 167.898 149.852 167.548C149.502 167.197 149.026 167 148.53 167H143.87C143.374 167 142.898 167.197 142.548 167.548C142.197 167.898 142 168.374 142 168.87V173.56C142 174.056 142.197 174.532 142.548 174.882C142.898 175.233 143.374 175.43 143.87 175.43V175.43ZM143 168.87C143 168.639 143.092 168.418 143.255 168.255C143.418 168.092 143.639 168 143.87 168H148.53C148.761 168 148.982 168.092 149.145 168.255C149.308 168.418 149.4 168.639 149.4 168.87V173.56C149.4 173.791 149.308 174.012 149.145 174.175C148.982 174.338 148.761 174.43 148.53 174.43H143.87C143.639 174.43 143.418 174.338 143.255 174.175C143.092 174.012 143 173.791 143 173.56V168.87Z" fill="black"/>
<path d="M164.5 173L155.5 167.5C154.7 167.1 154.5 168 154.5 168.5V173C154.5 174.2 155.5 174.833 156 175H164.5C166.5 174.6 165.333 173.5 164.5 173Z" fill="white"/>
<path d="M155.743 175.48H164.513C164.815 175.481 165.109 175.384 165.35 175.204C165.592 175.024 165.769 174.769 165.853 174.48C165.954 174.188 165.953 173.87 165.852 173.578C165.75 173.286 165.553 173.037 165.293 172.87L156.623 167.28C156.377 167.122 156.093 167.033 155.801 167.023C155.509 167.013 155.219 167.081 154.962 167.221C154.706 167.361 154.491 167.568 154.342 167.819C154.193 168.071 154.114 168.358 154.113 168.65V173.87C154.119 174.299 154.293 174.708 154.598 175.01C154.903 175.311 155.314 175.48 155.743 175.48V175.48ZM155.113 168.68C155.113 168.567 155.143 168.456 155.202 168.359C155.26 168.262 155.343 168.183 155.443 168.13C155.54 168.072 155.651 168.041 155.763 168.041C155.876 168.041 155.987 168.072 156.083 168.13L164.753 173.72C164.828 173.766 164.885 173.836 164.917 173.918C164.948 174 164.951 174.09 164.926 174.174C164.901 174.258 164.849 174.332 164.778 174.383C164.707 174.435 164.621 174.462 164.533 174.46H155.743C155.583 174.46 155.428 174.399 155.311 174.29C155.194 174.18 155.123 174.03 155.113 173.87V168.68Z" fill="black"/>
<path d="M172.513 181.24C172.513 181.108 172.46 180.98 172.367 180.887C172.273 180.793 172.146 180.74 172.013 180.74H119.203C119.071 180.74 118.943 180.793 118.85 180.887C118.756 180.98 118.703 181.108 118.703 181.24C118.703 181.373 118.756 181.5 118.85 181.594C118.943 181.688 119.071 181.74 119.203 181.74H172.003C172.07 181.742 172.136 181.73 172.198 181.705C172.259 181.681 172.316 181.644 172.363 181.597C172.411 181.551 172.448 181.495 172.474 181.434C172.5 181.373 172.513 181.307 172.513 181.24V181.24Z" fill="black"/>
<path d="M178.51 190.75H169.64C170.247 190.182 170.643 189.423 170.76 188.6H171.91C173.165 188.602 174.398 188.271 175.482 187.641C176.567 187.01 177.465 186.102 178.083 185.01C178.702 183.919 179.019 182.682 179.003 181.428C178.986 180.173 178.637 178.945 177.99 177.87C177.977 177.838 177.96 177.808 177.94 177.78C177.426 176.946 176.745 176.227 175.94 175.67L160.94 165.3C157.844 163.147 154.161 161.995 150.39 162H118.51C117.314 162 116.167 162.475 115.321 163.321C114.475 164.167 114 165.314 114 166.51V184.09C114.003 185.284 114.479 186.429 115.324 187.273C116.17 188.116 117.316 188.59 118.51 188.59H122.37C122.491 189.419 122.894 190.182 123.51 190.75H114.51C114.377 190.75 114.25 190.803 114.156 190.896C114.063 190.99 114.01 191.117 114.01 191.25C114.01 191.383 114.063 191.51 114.156 191.604C114.25 191.697 114.377 191.75 114.51 191.75H178.51C178.643 191.75 178.77 191.697 178.864 191.604C178.957 191.51 179.01 191.383 179.01 191.25C179.01 191.117 178.957 190.99 178.864 190.896C178.77 190.803 178.643 190.75 178.51 190.75ZM118.51 162.99H150.44C154.014 162.981 157.505 164.07 160.44 166.11L175.44 176.48C175.839 176.788 176.199 177.144 176.51 177.54H115.01V166.54C115.005 166.077 115.091 165.617 115.265 165.187C115.438 164.757 115.695 164.366 116.02 164.036C116.346 163.706 116.733 163.443 117.161 163.264C117.588 163.084 118.047 162.991 118.51 162.99ZM128.51 190.75C129.117 190.182 129.513 189.423 129.63 188.6H132.68C132.797 189.423 133.193 190.182 133.8 190.75H128.51ZM138.8 190.75C139.407 190.182 139.803 189.423 139.92 188.6H142.97C143.088 189.423 143.483 190.181 144.09 190.75H138.8ZM149.08 190.75C149.687 190.182 150.083 189.423 150.2 188.6H153.25C153.367 189.423 153.763 190.182 154.37 190.75H149.08ZM159.37 190.75C159.987 190.182 160.389 189.42 160.51 188.59H163.51C163.627 189.413 164.023 190.172 164.63 190.74L159.37 190.75Z" fill="black"/>
<path d="M191.5 166.5V178V179L253.5 179.5C254.5 179 254 177 254 177C249.167 173.667 238.9 166.6 236.5 165C234.1 163.4 230.167 162.667 228.5 162.5H195.5C192.3 162.9 191.5 165.333 191.5 166.5Z" fill="#D2D32F"/>
<path d="M198.664 175.013H202.836C203.278 175.013 203.701 174.837 204.013 174.525C204.325 174.213 204.5 173.79 204.5 173.349V169.176C204.5 168.735 204.325 168.312 204.013 168C203.701 167.688 203.278 167.513 202.836 167.513H198.664C198.222 167.513 197.799 167.688 197.487 168C197.175 168.312 197 168.735 197 169.176V173.349C197 173.79 197.175 174.213 197.487 174.525C197.799 174.837 198.222 175.013 198.664 175.013Z" fill="white"/>
<path d="M198.511 175.48H203.201C203.697 175.48 204.172 175.283 204.523 174.933C204.874 174.582 205.071 174.106 205.071 173.61V168.92C205.071 168.424 204.874 167.949 204.523 167.598C204.172 167.247 203.697 167.05 203.201 167.05H198.511C198.015 167.05 197.539 167.247 197.188 167.598C196.838 167.949 196.641 168.424 196.641 168.92V173.61C196.641 174.106 196.838 174.582 197.188 174.933C197.539 175.283 198.015 175.48 198.511 175.48V175.48ZM197.641 168.92C197.641 168.69 197.732 168.468 197.895 168.305C198.059 168.142 198.28 168.05 198.511 168.05H203.201C203.431 168.05 203.653 168.142 203.816 168.305C203.979 168.468 204.071 168.69 204.071 168.92V173.61C204.071 173.841 203.979 174.062 203.816 174.225C203.653 174.389 203.431 174.48 203.201 174.48H198.511C198.28 174.48 198.059 174.389 197.895 174.225C197.732 174.062 197.641 173.841 197.641 173.61V168.92Z" fill="black"/>
<path d="M210.164 175H214.336C214.778 175 215.201 174.825 215.513 174.513C215.825 174.201 216 173.778 216 173.336V169.164C216 168.722 215.825 168.299 215.513 167.987C215.201 167.675 214.778 167.5 214.336 167.5H210.164C209.722 167.5 209.299 167.675 208.987 167.987C208.675 168.299 208.5 168.722 208.5 169.164V173.336C208.5 173.778 208.675 174.201 208.987 174.513C209.299 174.825 209.722 175 210.164 175Z" fill="white"/>
<path d="M209.85 175.48H214.51C215.006 175.48 215.482 175.283 215.833 174.933C216.183 174.582 216.38 174.106 216.38 173.61V168.92C216.38 168.424 216.183 167.949 215.833 167.598C215.482 167.247 215.006 167.05 214.51 167.05H209.85C209.355 167.05 208.879 167.247 208.528 167.598C208.177 167.949 207.98 168.424 207.98 168.92V173.61C207.98 174.106 208.177 174.582 208.528 174.933C208.879 175.283 209.355 175.48 209.85 175.48V175.48ZM208.98 168.92C208.98 168.69 209.072 168.468 209.235 168.305C209.398 168.142 209.62 168.05 209.85 168.05H214.51C214.741 168.05 214.962 168.142 215.126 168.305C215.289 168.468 215.38 168.69 215.38 168.92V173.61C215.38 173.841 215.289 174.062 215.126 174.225C214.962 174.389 214.741 174.48 214.51 174.48H209.85C209.62 174.48 209.398 174.389 209.235 174.225C209.072 174.062 208.98 173.841 208.98 173.61V168.92Z" fill="black"/>
<path d="M221.183 174.95H225.356C225.797 174.95 226.22 174.774 226.532 174.462C226.844 174.15 227.02 173.727 227.02 173.286V169.113C227.02 168.672 226.844 168.249 226.532 167.937C226.22 167.625 225.797 167.45 225.356 167.45H221.183C220.742 167.45 220.319 167.625 220.007 167.937C219.695 168.249 219.52 168.672 219.52 169.113V173.286C219.52 173.727 219.695 174.15 220.007 174.462C220.319 174.774 220.742 174.95 221.183 174.95Z" fill="white"/>
<path d="M220.87 175.43H225.53C226.026 175.43 226.502 175.233 226.852 174.882C227.203 174.532 227.4 174.056 227.4 173.56V168.87C227.4 168.374 227.203 167.898 226.852 167.548C226.502 167.197 226.026 167 225.53 167H220.87C220.374 167 219.898 167.197 219.548 167.548C219.197 167.898 219 168.374 219 168.87V173.56C219 174.056 219.197 174.532 219.548 174.882C219.898 175.233 220.374 175.43 220.87 175.43V175.43ZM220 168.87C220 168.639 220.092 168.418 220.255 168.255C220.418 168.092 220.639 168 220.87 168H225.53C225.761 168 225.982 168.092 226.145 168.255C226.308 168.418 226.4 168.639 226.4 168.87V173.56C226.4 173.791 226.308 174.012 226.145 174.175C225.982 174.338 225.761 174.43 225.53 174.43H220.87C220.639 174.43 220.418 174.338 220.255 174.175C220.092 174.012 220 173.791 220 173.56V168.87Z" fill="black"/>
<path d="M241.5 173L232.5 167.5C231.7 167.1 231.5 168 231.5 168.5V173C231.5 174.2 232.5 174.833 233 175H241.5C243.5 174.6 242.333 173.5 241.5 173Z" fill="white"/>
<path d="M232.743 175.48H241.513C241.815 175.481 242.109 175.384 242.35 175.204C242.592 175.024 242.769 174.769 242.853 174.48C242.954 174.188 242.953 173.87 242.852 173.578C242.75 173.286 242.553 173.037 242.293 172.87L233.623 167.28C233.377 167.122 233.093 167.033 232.801 167.023C232.509 167.013 232.219 167.081 231.962 167.221C231.706 167.361 231.491 167.568 231.342 167.819C231.193 168.071 231.114 168.358 231.113 168.65V173.87C231.119 174.299 231.293 174.708 231.598 175.01C231.903 175.311 232.314 175.48 232.743 175.48V175.48ZM232.113 168.68C232.113 168.567 232.143 168.456 232.202 168.359C232.26 168.262 232.343 168.183 232.443 168.13C232.54 168.072 232.651 168.041 232.763 168.041C232.876 168.041 232.987 168.072 233.083 168.13L241.753 173.72C241.828 173.766 241.885 173.836 241.917 173.918C241.948 174 241.951 174.09 241.926 174.174C241.901 174.258 241.849 174.332 241.778 174.383C241.707 174.435 241.621 174.462 241.533 174.46H232.743C232.583 174.46 232.428 174.399 232.311 174.29C232.194 174.18 232.123 174.03 232.113 173.87V168.68Z" fill="black"/>
<path d="M249.513 181.24C249.513 181.108 249.46 180.98 249.367 180.887C249.273 180.793 249.146 180.74 249.013 180.74H196.203C196.071 180.74 195.943 180.793 195.85 180.887C195.756 180.98 195.703 181.108 195.703 181.24C195.703 181.373 195.756 181.5 195.85 181.594C195.943 181.688 196.071 181.74 196.203 181.74H249.003C249.07 181.742 249.136 181.73 249.198 181.705C249.259 181.681 249.316 181.644 249.363 181.597C249.411 181.551 249.448 181.495 249.474 181.434C249.5 181.373 249.513 181.307 249.513 181.24V181.24Z" fill="black"/>
<path d="M255.51 190.75H246.64C247.247 190.182 247.643 189.423 247.76 188.6H248.91C250.165 188.602 251.398 188.271 252.482 187.641C253.567 187.01 254.465 186.102 255.083 185.01C255.702 183.919 256.019 182.682 256.003 181.428C255.986 180.173 255.637 178.945 254.99 177.87C254.977 177.838 254.96 177.808 254.94 177.78C254.426 176.946 253.745 176.227 252.94 175.67L237.94 165.3C234.844 163.147 231.161 161.995 227.39 162H195.51C194.314 162 193.167 162.475 192.321 163.321C191.475 164.167 191 165.314 191 166.51V184.09C191.003 185.284 191.479 186.429 192.324 187.273C193.17 188.116 194.316 188.59 195.51 188.59H199.37C199.491 189.419 199.894 190.182 200.51 190.75H191.51C191.377 190.75 191.25 190.803 191.156 190.896C191.063 190.99 191.01 191.117 191.01 191.25C191.01 191.383 191.063 191.51 191.156 191.604C191.25 191.697 191.377 191.75 191.51 191.75H255.51C255.643 191.75 255.77 191.697 255.864 191.604C255.957 191.51 256.01 191.383 256.01 191.25C256.01 191.117 255.957 190.99 255.864 190.896C255.77 190.803 255.643 190.75 255.51 190.75ZM195.51 162.99H227.44C231.014 162.981 234.505 164.07 237.44 166.11L252.44 176.48C252.839 176.788 253.199 177.144 253.51 177.54H192.01V166.54C192.005 166.077 192.091 165.617 192.265 165.187C192.438 164.757 192.695 164.366 193.02 164.036C193.346 163.706 193.733 163.443 194.161 163.264C194.588 163.084 195.047 162.991 195.51 162.99ZM205.51 190.75C206.117 190.182 206.513 189.423 206.63 188.6H209.68C209.797 189.423 210.193 190.182 210.8 190.75H205.51ZM215.8 190.75C216.407 190.182 216.803 189.423 216.92 188.6H219.97C220.088 189.423 220.483 190.181 221.09 190.75H215.8ZM226.08 190.75C226.687 190.182 227.083 189.423 227.2 188.6H230.25C230.367 189.423 230.763 190.182 231.37 190.75H226.08ZM236.37 190.75C236.987 190.182 237.389 189.42 237.51 188.59H240.51C240.627 189.413 241.023 190.172 241.63 190.74L236.37 190.75Z" fill="black"/>
<path d="M268.5 166.5V178V179L330.5 179.5C331.5 179 331 177 331 177C326.167 173.667 315.9 166.6 313.5 165C311.1 163.4 307.167 162.667 305.5 162.5H272.5C269.3 162.9 268.5 165.333 268.5 166.5Z" fill="#D2D32F"/>
<path d="M275.664 175.013H279.836C280.278 175.013 280.701 174.837 281.013 174.525C281.325 174.213 281.5 173.79 281.5 173.349V169.176C281.5 168.735 281.325 168.312 281.013 168C280.701 167.688 280.278 167.513 279.836 167.513H275.664C275.222 167.513 274.799 167.688 274.487 168C274.175 168.312 274 168.735 274 169.176V173.349C274 173.79 274.175 174.213 274.487 174.525C274.799 174.837 275.222 175.013 275.664 175.013Z" fill="white"/>
<path d="M275.511 175.48H280.201C280.697 175.48 281.172 175.283 281.523 174.933C281.874 174.582 282.071 174.106 282.071 173.61V168.92C282.071 168.424 281.874 167.949 281.523 167.598C281.172 167.247 280.697 167.05 280.201 167.05H275.511C275.015 167.05 274.539 167.247 274.188 167.598C273.838 167.949 273.641 168.424 273.641 168.92V173.61C273.641 174.106 273.838 174.582 274.188 174.933C274.539 175.283 275.015 175.48 275.511 175.48V175.48ZM274.641 168.92C274.641 168.69 274.732 168.468 274.895 168.305C275.059 168.142 275.28 168.05 275.511 168.05H280.201C280.431 168.05 280.653 168.142 280.816 168.305C280.979 168.468 281.071 168.69 281.071 168.92V173.61C281.071 173.841 280.979 174.062 280.816 174.225C280.653 174.389 280.431 174.48 280.201 174.48H275.511C275.28 174.48 275.059 174.389 274.895 174.225C274.732 174.062 274.641 173.841 274.641 173.61V168.92Z" fill="black"/>
<path d="M287.164 175H291.336C291.778 175 292.201 174.825 292.513 174.513C292.825 174.201 293 173.778 293 173.336V169.164C293 168.722 292.825 168.299 292.513 167.987C292.201 167.675 291.778 167.5 291.336 167.5H287.164C286.722 167.5 286.299 167.675 285.987 167.987C285.675 168.299 285.5 168.722 285.5 169.164V173.336C285.5 173.778 285.675 174.201 285.987 174.513C286.299 174.825 286.722 175 287.164 175Z" fill="white"/>
<path d="M286.85 175.48H291.51C292.006 175.48 292.482 175.283 292.833 174.933C293.183 174.582 293.38 174.106 293.38 173.61V168.92C293.38 168.424 293.183 167.949 292.833 167.598C292.482 167.247 292.006 167.05 291.51 167.05H286.85C286.355 167.05 285.879 167.247 285.528 167.598C285.177 167.949 284.98 168.424 284.98 168.92V173.61C284.98 174.106 285.177 174.582 285.528 174.933C285.879 175.283 286.355 175.48 286.85 175.48V175.48ZM285.98 168.92C285.98 168.69 286.072 168.468 286.235 168.305C286.398 168.142 286.62 168.05 286.85 168.05H291.51C291.741 168.05 291.962 168.142 292.126 168.305C292.289 168.468 292.38 168.69 292.38 168.92V173.61C292.38 173.841 292.289 174.062 292.126 174.225C291.962 174.389 291.741 174.48 291.51 174.48H286.85C286.62 174.48 286.398 174.389 286.235 174.225C286.072 174.062 285.98 173.841 285.98 173.61V168.92Z" fill="black"/>
<path d="M298.183 174.95H302.356C302.797 174.95 303.22 174.774 303.532 174.462C303.844 174.15 304.02 173.727 304.02 173.286V169.113C304.02 168.672 303.844 168.249 303.532 167.937C303.22 167.625 302.797 167.45 302.356 167.45H298.183C297.742 167.45 297.319 167.625 297.007 167.937C296.695 168.249 296.52 168.672 296.52 169.113V173.286C296.52 173.727 296.695 174.15 297.007 174.462C297.319 174.774 297.742 174.95 298.183 174.95Z" fill="white"/>
<path d="M297.87 175.43H302.53C303.026 175.43 303.502 175.233 303.852 174.882C304.203 174.532 304.4 174.056 304.4 173.56V168.87C304.4 168.374 304.203 167.898 303.852 167.548C303.502 167.197 303.026 167 302.53 167H297.87C297.374 167 296.898 167.197 296.548 167.548C296.197 167.898 296 168.374 296 168.87V173.56C296 174.056 296.197 174.532 296.548 174.882C296.898 175.233 297.374 175.43 297.87 175.43V175.43ZM297 168.87C297 168.639 297.092 168.418 297.255 168.255C297.418 168.092 297.639 168 297.87 168H302.53C302.761 168 302.982 168.092 303.145 168.255C303.308 168.418 303.4 168.639 303.4 168.87V173.56C303.4 173.791 303.308 174.012 303.145 174.175C302.982 174.338 302.761 174.43 302.53 174.43H297.87C297.639 174.43 297.418 174.338 297.255 174.175C297.092 174.012 297 173.791 297 173.56V168.87Z" fill="black"/>
<path d="M318.5 173L309.5 167.5C308.7 167.1 308.5 168 308.5 168.5V173C308.5 174.2 309.5 174.833 310 175H318.5C320.5 174.6 319.333 173.5 318.5 173Z" fill="white"/>
<path d="M309.743 175.48H318.513C318.815 175.481 319.109 175.384 319.35 175.204C319.592 175.024 319.769 174.769 319.853 174.48C319.954 174.188 319.953 173.87 319.852 173.578C319.75 173.286 319.553 173.037 319.293 172.87L310.623 167.28C310.377 167.122 310.093 167.033 309.801 167.023C309.509 167.013 309.219 167.081 308.962 167.221C308.706 167.361 308.491 167.568 308.342 167.819C308.193 168.071 308.114 168.358 308.113 168.65V173.87C308.119 174.299 308.293 174.708 308.598 175.01C308.903 175.311 309.314 175.48 309.743 175.48V175.48ZM309.113 168.68C309.113 168.567 309.143 168.456 309.202 168.359C309.26 168.262 309.343 168.183 309.443 168.13C309.54 168.072 309.651 168.041 309.763 168.041C309.876 168.041 309.987 168.072 310.083 168.13L318.753 173.72C318.828 173.766 318.885 173.836 318.917 173.918C318.948 174 318.951 174.09 318.926 174.174C318.901 174.258 318.849 174.332 318.778 174.383C318.707 174.435 318.621 174.462 318.533 174.46H309.743C309.583 174.46 309.428 174.399 309.311 174.29C309.194 174.18 309.123 174.03 309.113 173.87V168.68Z" fill="black"/>
<path d="M326.513 181.24C326.513 181.108 326.46 180.98 326.367 180.887C326.273 180.793 326.146 180.74 326.013 180.74H273.203C273.071 180.74 272.943 180.793 272.85 180.887C272.756 180.98 272.703 181.108 272.703 181.24C272.703 181.373 272.756 181.5 272.85 181.594C272.943 181.688 273.071 181.74 273.203 181.74H326.003C326.07 181.742 326.136 181.73 326.198 181.705C326.259 181.681 326.316 181.644 326.363 181.597C326.411 181.551 326.448 181.495 326.474 181.434C326.5 181.373 326.513 181.307 326.513 181.24V181.24Z" fill="black"/>
<path d="M332.51 190.75H323.64C324.247 190.182 324.643 189.423 324.76 188.6H325.91C327.165 188.602 328.398 188.271 329.482 187.641C330.567 187.01 331.465 186.102 332.083 185.01C332.702 183.919 333.019 182.682 333.003 181.428C332.986 180.173 332.637 178.945 331.99 177.87C331.977 177.838 331.96 177.808 331.94 177.78C331.426 176.946 330.745 176.227 329.94 175.67L314.94 165.3C311.844 163.147 308.161 161.995 304.39 162H272.51C271.314 162 270.167 162.475 269.321 163.321C268.475 164.167 268 165.314 268 166.51V184.09C268.003 185.284 268.479 186.429 269.324 187.273C270.17 188.116 271.316 188.59 272.51 188.59H276.37C276.491 189.419 276.894 190.182 277.51 190.75H268.51C268.377 190.75 268.25 190.803 268.156 190.896C268.063 190.99 268.01 191.117 268.01 191.25C268.01 191.383 268.063 191.51 268.156 191.604C268.25 191.697 268.377 191.75 268.51 191.75H332.51C332.643 191.75 332.77 191.697 332.864 191.604C332.957 191.51 333.01 191.383 333.01 191.25C333.01 191.117 332.957 190.99 332.864 190.896C332.77 190.803 332.643 190.75 332.51 190.75ZM272.51 162.99H304.44C308.014 162.981 311.505 164.07 314.44 166.11L329.44 176.48C329.839 176.788 330.199 177.144 330.51 177.54H269.01V166.54C269.005 166.077 269.091 165.617 269.265 165.187C269.438 164.757 269.695 164.366 270.02 164.036C270.346 163.706 270.733 163.443 271.161 163.264C271.588 163.084 272.047 162.991 272.51 162.99ZM282.51 190.75C283.117 190.182 283.513 189.423 283.63 188.6H286.68C286.797 189.423 287.193 190.182 287.8 190.75H282.51ZM292.8 190.75C293.407 190.182 293.803 189.423 293.92 188.6H296.97C297.088 189.423 297.483 190.181 298.09 190.75H292.8ZM303.08 190.75C303.687 190.182 304.083 189.423 304.2 188.6H307.25C307.367 189.423 307.763 190.182 308.37 190.75H303.08ZM313.37 190.75C313.987 190.182 314.389 189.42 314.51 188.59H317.51C317.627 189.413 318.023 190.172 318.63 190.74L313.37 190.75Z" fill="black"/>
<path d="M378.5 166.5V178V179L440.5 179.5C441.5 179 441 177 441 177C436.167 173.667 425.9 166.6 423.5 165C421.1 163.4 417.167 162.667 415.5 162.5H382.5C379.3 162.9 378.5 165.333 378.5 166.5Z" fill="#D2D32F"/>
<path d="M385.664 175.013H389.836C390.278 175.013 390.701 174.837 391.013 174.525C391.325 174.213 391.5 173.79 391.5 173.349V169.176C391.5 168.735 391.325 168.312 391.013 168C390.701 167.688 390.278 167.513 389.836 167.513H385.664C385.222 167.513 384.799 167.688 384.487 168C384.175 168.312 384 168.735 384 169.176V173.349C384 173.79 384.175 174.213 384.487 174.525C384.799 174.837 385.222 175.013 385.664 175.013Z" fill="white"/>
<path d="M385.511 175.48H390.201C390.697 175.48 391.172 175.283 391.523 174.933C391.874 174.582 392.071 174.106 392.071 173.61V168.92C392.071 168.424 391.874 167.949 391.523 167.598C391.172 167.247 390.697 167.05 390.201 167.05H385.511C385.015 167.05 384.539 167.247 384.188 167.598C383.838 167.949 383.641 168.424 383.641 168.92V173.61C383.641 174.106 383.838 174.582 384.188 174.933C384.539 175.283 385.015 175.48 385.511 175.48V175.48ZM384.641 168.92C384.641 168.69 384.732 168.468 384.895 168.305C385.059 168.142 385.28 168.05 385.511 168.05H390.201C390.431 168.05 390.653 168.142 390.816 168.305C390.979 168.468 391.071 168.69 391.071 168.92V173.61C391.071 173.841 390.979 174.062 390.816 174.225C390.653 174.389 390.431 174.48 390.201 174.48H385.511C385.28 174.48 385.059 174.389 384.895 174.225C384.732 174.062 384.641 173.841 384.641 173.61V168.92Z" fill="black"/>
<path d="M397.164 175H401.336C401.778 175 402.201 174.825 402.513 174.513C402.825 174.201 403 173.778 403 173.336V169.164C403 168.722 402.825 168.299 402.513 167.987C402.201 167.675 401.778 167.5 401.336 167.5H397.164C396.722 167.5 396.299 167.675 395.987 167.987C395.675 168.299 395.5 168.722 395.5 169.164V173.336C395.5 173.778 395.675 174.201 395.987 174.513C396.299 174.825 396.722 175 397.164 175Z" fill="white"/>
<path d="M396.85 175.48H401.51C402.006 175.48 402.482 175.283 402.833 174.933C403.183 174.582 403.38 174.106 403.38 173.61V168.92C403.38 168.424 403.183 167.949 402.833 167.598C402.482 167.247 402.006 167.05 401.51 167.05H396.85C396.355 167.05 395.879 167.247 395.528 167.598C395.177 167.949 394.98 168.424 394.98 168.92V173.61C394.98 174.106 395.177 174.582 395.528 174.933C395.879 175.283 396.355 175.48 396.85 175.48V175.48ZM395.98 168.92C395.98 168.69 396.072 168.468 396.235 168.305C396.398 168.142 396.62 168.05 396.85 168.05H401.51C401.741 168.05 401.962 168.142 402.126 168.305C402.289 168.468 402.38 168.69 402.38 168.92V173.61C402.38 173.841 402.289 174.062 402.126 174.225C401.962 174.389 401.741 174.48 401.51 174.48H396.85C396.62 174.48 396.398 174.389 396.235 174.225C396.072 174.062 395.98 173.841 395.98 173.61V168.92Z" fill="black"/>
<path d="M408.183 174.95H412.356C412.797 174.95 413.22 174.774 413.532 174.462C413.844 174.15 414.02 173.727 414.02 173.286V169.113C414.02 168.672 413.844 168.249 413.532 167.937C413.22 167.625 412.797 167.45 412.356 167.45H408.183C407.742 167.45 407.319 167.625 407.007 167.937C406.695 168.249 406.52 168.672 406.52 169.113V173.286C406.52 173.727 406.695 174.15 407.007 174.462C407.319 174.774 407.742 174.95 408.183 174.95Z" fill="white"/>
<path d="M407.87 175.43H412.53C413.026 175.43 413.502 175.233 413.852 174.882C414.203 174.532 414.4 174.056 414.4 173.56V168.87C414.4 168.374 414.203 167.898 413.852 167.548C413.502 167.197 413.026 167 412.53 167H407.87C407.374 167 406.898 167.197 406.548 167.548C406.197 167.898 406 168.374 406 168.87V173.56C406 174.056 406.197 174.532 406.548 174.882C406.898 175.233 407.374 175.43 407.87 175.43V175.43ZM407 168.87C407 168.639 407.092 168.418 407.255 168.255C407.418 168.092 407.639 168 407.87 168H412.53C412.761 168 412.982 168.092 413.145 168.255C413.308 168.418 413.4 168.639 413.4 168.87V173.56C413.4 173.791 413.308 174.012 413.145 174.175C412.982 174.338 412.761 174.43 412.53 174.43H407.87C407.639 174.43 407.418 174.338 407.255 174.175C407.092 174.012 407 173.791 407 173.56V168.87Z" fill="black"/>
<path d="M428.5 173L419.5 167.5C418.7 167.1 418.5 168 418.5 168.5V173C418.5 174.2 419.5 174.833 420 175H428.5C430.5 174.6 429.333 173.5 428.5 173Z" fill="white"/>
<path d="M419.743 175.48H428.513C428.815 175.481 429.109 175.384 429.35 175.204C429.592 175.024 429.769 174.769 429.853 174.48C429.954 174.188 429.953 173.87 429.852 173.578C429.75 173.286 429.553 173.037 429.293 172.87L420.623 167.28C420.377 167.122 420.093 167.033 419.801 167.023C419.509 167.013 419.219 167.081 418.962 167.221C418.706 167.361 418.491 167.568 418.342 167.819C418.193 168.071 418.114 168.358 418.113 168.65V173.87C418.119 174.299 418.293 174.708 418.598 175.01C418.903 175.311 419.314 175.48 419.743 175.48V175.48ZM419.113 168.68C419.113 168.567 419.143 168.456 419.202 168.359C419.26 168.262 419.343 168.183 419.443 168.13C419.54 168.072 419.651 168.041 419.763 168.041C419.876 168.041 419.987 168.072 420.083 168.13L428.753 173.72C428.828 173.766 428.885 173.836 428.917 173.918C428.948 174 428.951 174.09 428.926 174.174C428.901 174.258 428.849 174.332 428.778 174.383C428.707 174.435 428.621 174.462 428.533 174.46H419.743C419.583 174.46 419.428 174.399 419.311 174.29C419.194 174.18 419.123 174.03 419.113 173.87V168.68Z" fill="black"/>
<path d="M436.513 181.24C436.513 181.108 436.46 180.98 436.367 180.887C436.273 180.793 436.146 180.74 436.013 180.74H383.203C383.071 180.74 382.943 180.793 382.85 180.887C382.756 180.98 382.703 181.108 382.703 181.24C382.703 181.373 382.756 181.5 382.85 181.594C382.943 181.688 383.071 181.74 383.203 181.74H436.003C436.07 181.742 436.136 181.73 436.198 181.705C436.259 181.681 436.316 181.644 436.363 181.597C436.411 181.551 436.448 181.495 436.474 181.434C436.5 181.373 436.513 181.307 436.513 181.24V181.24Z" fill="black"/>
<path d="M442.51 190.75H433.64C434.247 190.182 434.643 189.423 434.76 188.6H435.91C437.165 188.602 438.398 188.271 439.482 187.641C440.567 187.01 441.465 186.102 442.083 185.01C442.702 183.919 443.019 182.682 443.003 181.428C442.986 180.173 442.637 178.945 441.99 177.87C441.977 177.838 441.96 177.808 441.94 177.78C441.426 176.946 440.745 176.227 439.94 175.67L424.94 165.3C421.844 163.147 418.161 161.995 414.39 162H382.51C381.314 162 380.167 162.475 379.321 163.321C378.475 164.167 378 165.314 378 166.51V184.09C378.003 185.284 378.479 186.429 379.324 187.273C380.17 188.116 381.316 188.59 382.51 188.59H386.37C386.491 189.419 386.894 190.182 387.51 190.75H378.51C378.377 190.75 378.25 190.803 378.156 190.896C378.063 190.99 378.01 191.117 378.01 191.25C378.01 191.383 378.063 191.51 378.156 191.604C378.25 191.697 378.377 191.75 378.51 191.75H442.51C442.643 191.75 442.77 191.697 442.864 191.604C442.957 191.51 443.01 191.383 443.01 191.25C443.01 191.117 442.957 190.99 442.864 190.896C442.77 190.803 442.643 190.75 442.51 190.75ZM382.51 162.99H414.44C418.014 162.981 421.505 164.07 424.44 166.11L439.44 176.48C439.839 176.788 440.199 177.144 440.51 177.54H379.01V166.54C379.005 166.077 379.091 165.617 379.265 165.187C379.438 164.757 379.695 164.366 380.02 164.036C380.346 163.706 380.733 163.443 381.161 163.264C381.588 163.084 382.047 162.991 382.51 162.99ZM392.51 190.75C393.117 190.182 393.513 189.423 393.63 188.6H396.68C396.797 189.423 397.193 190.182 397.8 190.75H392.51ZM402.8 190.75C403.407 190.182 403.803 189.423 403.92 188.6H406.97C407.088 189.423 407.483 190.181 408.09 190.75H402.8ZM413.08 190.75C413.687 190.182 414.083 189.423 414.2 188.6H417.25C417.367 189.423 417.763 190.182 418.37 190.75H413.08ZM423.37 190.75C423.987 190.182 424.389 189.42 424.51 188.59H427.51C427.627 189.413 428.023 190.172 428.63 190.74L423.37 190.75Z" fill="black"/>
<path d="M542.5 166.5V178V179L604.5 179.5C605.5 179 605 177 605 177C600.167 173.667 589.9 166.6 587.5 165C585.1 163.4 581.167 162.667 579.5 162.5H546.5C543.3 162.9 542.5 165.333 542.5 166.5Z" fill="#D2D32F"/>
<path d="M549.664 175.013H553.836C554.278 175.013 554.701 174.837 555.013 174.525C555.325 174.213 555.5 173.79 555.5 173.349V169.176C555.5 168.735 555.325 168.312 555.013 168C554.701 167.688 554.278 167.513 553.836 167.513H549.664C549.222 167.513 548.799 167.688 548.487 168C548.175 168.312 548 168.735 548 169.176V173.349C548 173.79 548.175 174.213 548.487 174.525C548.799 174.837 549.222 175.013 549.664 175.013Z" fill="white"/>
<path d="M549.511 175.48H554.201C554.697 175.48 555.172 175.283 555.523 174.933C555.874 174.582 556.071 174.106 556.071 173.61V168.92C556.071 168.424 555.874 167.949 555.523 167.598C555.172 167.247 554.697 167.05 554.201 167.05H549.511C549.015 167.05 548.539 167.247 548.188 167.598C547.838 167.949 547.641 168.424 547.641 168.92V173.61C547.641 174.106 547.838 174.582 548.188 174.933C548.539 175.283 549.015 175.48 549.511 175.48V175.48ZM548.641 168.92C548.641 168.69 548.732 168.468 548.895 168.305C549.059 168.142 549.28 168.05 549.511 168.05H554.201C554.431 168.05 554.653 168.142 554.816 168.305C554.979 168.468 555.071 168.69 555.071 168.92V173.61C555.071 173.841 554.979 174.062 554.816 174.225C554.653 174.389 554.431 174.48 554.201 174.48H549.511C549.28 174.48 549.059 174.389 548.895 174.225C548.732 174.062 548.641 173.841 548.641 173.61V168.92Z" fill="black"/>
<path d="M561.164 175H565.336C565.778 175 566.201 174.825 566.513 174.513C566.825 174.201 567 173.778 567 173.336V169.164C567 168.722 566.825 168.299 566.513 167.987C566.201 167.675 565.778 167.5 565.336 167.5H561.164C560.722 167.5 560.299 167.675 559.987 167.987C559.675 168.299 559.5 168.722 559.5 169.164V173.336C559.5 173.778 559.675 174.201 559.987 174.513C560.299 174.825 560.722 175 561.164 175Z" fill="white"/>
<path d="M560.85 175.48H565.51C566.006 175.48 566.482 175.283 566.833 174.933C567.183 174.582 567.38 174.106 567.38 173.61V168.92C567.38 168.424 567.183 167.949 566.833 167.598C566.482 167.247 566.006 167.05 565.51 167.05H560.85C560.355 167.05 559.879 167.247 559.528 167.598C559.177 167.949 558.98 168.424 558.98 168.92V173.61C558.98 174.106 559.177 174.582 559.528 174.933C559.879 175.283 560.355 175.48 560.85 175.48V175.48ZM559.98 168.92C559.98 168.69 560.072 168.468 560.235 168.305C560.398 168.142 560.62 168.05 560.85 168.05H565.51C565.741 168.05 565.962 168.142 566.126 168.305C566.289 168.468 566.38 168.69 566.38 168.92V173.61C566.38 173.841 566.289 174.062 566.126 174.225C565.962 174.389 565.741 174.48 565.51 174.48H560.85C560.62 174.48 560.398 174.389 560.235 174.225C560.072 174.062 559.98 173.841 559.98 173.61V168.92Z" fill="black"/>
<path d="M572.183 174.95H576.356C576.797 174.95 577.22 174.774 577.532 174.462C577.844 174.15 578.02 173.727 578.02 173.286V169.113C578.02 168.672 577.844 168.249 577.532 167.937C577.22 167.625 576.797 167.45 576.356 167.45H572.183C571.742 167.45 571.319 167.625 571.007 167.937C570.695 168.249 570.52 168.672 570.52 169.113V173.286C570.52 173.727 570.695 174.15 571.007 174.462C571.319 174.774 571.742 174.95 572.183 174.95Z" fill="white"/>
<path d="M571.87 175.43H576.53C577.026 175.43 577.502 175.233 577.852 174.882C578.203 174.532 578.4 174.056 578.4 173.56V168.87C578.4 168.374 578.203 167.898 577.852 167.548C577.502 167.197 577.026 167 576.53 167H571.87C571.374 167 570.898 167.197 570.548 167.548C570.197 167.898 570 168.374 570 168.87V173.56C570 174.056 570.197 174.532 570.548 174.882C570.898 175.233 571.374 175.43 571.87 175.43V175.43ZM571 168.87C571 168.639 571.092 168.418 571.255 168.255C571.418 168.092 571.639 168 571.87 168H576.53C576.761 168 576.982 168.092 577.145 168.255C577.308 168.418 577.4 168.639 577.4 168.87V173.56C577.4 173.791 577.308 174.012 577.145 174.175C576.982 174.338 576.761 174.43 576.53 174.43H571.87C571.639 174.43 571.418 174.338 571.255 174.175C571.092 174.012 571 173.791 571 173.56V168.87Z" fill="black"/>
<path d="M592.5 173L583.5 167.5C582.7 167.1 582.5 168 582.5 168.5V173C582.5 174.2 583.5 174.833 584 175H592.5C594.5 174.6 593.333 173.5 592.5 173Z" fill="white"/>
<path d="M583.743 175.48H592.513C592.815 175.481 593.109 175.384 593.35 175.204C593.592 175.024 593.769 174.769 593.853 174.48C593.954 174.188 593.953 173.87 593.852 173.578C593.75 173.286 593.553 173.037 593.293 172.87L584.623 167.28C584.377 167.122 584.093 167.033 583.801 167.023C583.509 167.013 583.219 167.081 582.962 167.221C582.706 167.361 582.491 167.568 582.342 167.819C582.193 168.071 582.114 168.358 582.113 168.65V173.87C582.119 174.299 582.293 174.708 582.598 175.01C582.903 175.311 583.314 175.48 583.743 175.48V175.48ZM583.113 168.68C583.113 168.567 583.143 168.456 583.202 168.359C583.26 168.262 583.343 168.183 583.443 168.13C583.54 168.072 583.651 168.041 583.763 168.041C583.876 168.041 583.987 168.072 584.083 168.13L592.753 173.72C592.828 173.766 592.885 173.836 592.917 173.918C592.948 174 592.951 174.09 592.926 174.174C592.901 174.258 592.849 174.332 592.778 174.383C592.707 174.435 592.621 174.462 592.533 174.46H583.743C583.583 174.46 583.428 174.399 583.311 174.29C583.194 174.18 583.123 174.03 583.113 173.87V168.68Z" fill="black"/>
<path d="M600.513 181.24C600.513 181.108 600.46 180.98 600.367 180.887C600.273 180.793 600.146 180.74 600.013 180.74H547.203C547.071 180.74 546.943 180.793 546.85 180.887C546.756 180.98 546.703 181.108 546.703 181.24C546.703 181.373 546.756 181.5 546.85 181.594C546.943 181.688 547.071 181.74 547.203 181.74H600.003C600.07 181.742 600.136 181.73 600.198 181.705C600.259 181.681 600.316 181.644 600.363 181.597C600.411 181.551 600.448 181.495 600.474 181.434C600.5 181.373 600.513 181.307 600.513 181.24V181.24Z" fill="black"/>
<path d="M606.51 190.75H597.64C598.247 190.182 598.643 189.423 598.76 188.6H599.91C601.165 188.602 602.398 188.271 603.482 187.641C604.567 187.01 605.465 186.102 606.083 185.01C606.702 183.919 607.019 182.682 607.003 181.428C606.986 180.173 606.637 178.945 605.99 177.87C605.977 177.838 605.96 177.808 605.94 177.78C605.426 176.946 604.745 176.227 603.94 175.67L588.94 165.3C585.844 163.147 582.161 161.995 578.39 162H546.51C545.314 162 544.167 162.475 543.321 163.321C542.475 164.167 542 165.314 542 166.51V184.09C542.003 185.284 542.479 186.429 543.324 187.273C544.17 188.116 545.316 188.59 546.51 188.59H550.37C550.491 189.419 550.894 190.182 551.51 190.75H542.51C542.377 190.75 542.25 190.803 542.156 190.896C542.063 190.99 542.01 191.117 542.01 191.25C542.01 191.383 542.063 191.51 542.156 191.604C542.25 191.697 542.377 191.75 542.51 191.75H606.51C606.643 191.75 606.77 191.697 606.864 191.604C606.957 191.51 607.01 191.383 607.01 191.25C607.01 191.117 606.957 190.99 606.864 190.896C606.77 190.803 606.643 190.75 606.51 190.75ZM546.51 162.99H578.44C582.014 162.981 585.505 164.07 588.44 166.11L603.44 176.48C603.839 176.788 604.199 177.144 604.51 177.54H543.01V166.54C543.005 166.077 543.091 165.617 543.265 165.187C543.438 164.757 543.695 164.366 544.02 164.036C544.346 163.706 544.733 163.443 545.161 163.264C545.588 163.084 546.047 162.991 546.51 162.99ZM556.51 190.75C557.117 190.182 557.513 189.423 557.63 188.6H560.68C560.797 189.423 561.193 190.182 561.8 190.75H556.51ZM566.8 190.75C567.407 190.182 567.803 189.423 567.92 188.6H570.97C571.088 189.423 571.483 190.181 572.09 190.75H566.8ZM577.08 190.75C577.687 190.182 578.083 189.423 578.2 188.6H581.25C581.367 189.423 581.763 190.182 582.37 190.75H577.08ZM587.37 190.75C587.987 190.182 588.389 189.42 588.51 188.59H591.51C591.627 189.413 592.023 190.172 592.63 190.74L587.37 190.75Z" fill="black"/>
<path d="M175.982 232.958L175.128 233.91L173.672 232.636C173.299 232.851 172.911 233.005 172.51 233.098C172.109 233.191 171.712 233.238 171.32 233.238C170.573 233.238 169.901 233.103 169.304 232.832C168.716 232.552 168.217 232.174 167.806 231.698C167.395 231.222 167.078 230.667 166.854 230.032C166.639 229.397 166.532 228.721 166.532 228.002C166.532 227.293 166.639 226.621 166.854 225.986C167.078 225.351 167.395 224.796 167.806 224.32C168.217 223.844 168.716 223.466 169.304 223.186C169.901 222.906 170.573 222.766 171.32 222.766C172.067 222.766 172.734 222.906 173.322 223.186C173.919 223.466 174.423 223.844 174.834 224.32C175.245 224.796 175.557 225.351 175.772 225.986C175.996 226.621 176.108 227.293 176.108 228.002C176.108 228.347 176.08 228.697 176.024 229.052C175.968 229.397 175.884 229.738 175.772 230.074C175.66 230.41 175.515 230.732 175.338 231.04C175.161 231.339 174.946 231.605 174.694 231.838L175.982 232.958ZM171.432 230.69L172.272 229.724L173.49 230.788C173.807 230.405 174.031 229.971 174.162 229.486C174.293 229.001 174.358 228.506 174.358 228.002C174.358 227.526 174.297 227.059 174.176 226.602C174.064 226.145 173.887 225.739 173.644 225.384C173.401 225.02 173.084 224.731 172.692 224.516C172.309 224.301 171.852 224.194 171.32 224.194C170.788 224.194 170.326 224.301 169.934 224.516C169.551 224.731 169.239 225.02 168.996 225.384C168.753 225.739 168.571 226.145 168.45 226.602C168.338 227.059 168.282 227.526 168.282 228.002C168.282 228.478 168.338 228.945 168.45 229.402C168.571 229.859 168.753 230.27 168.996 230.634C169.239 230.989 169.551 231.273 169.934 231.488C170.326 231.703 170.788 231.81 171.32 231.81C171.507 231.81 171.693 231.791 171.88 231.754C172.076 231.717 172.263 231.656 172.44 231.572L171.432 230.69ZM183.833 233H182.265V231.992H182.237C182.041 232.356 181.747 232.65 181.355 232.874C180.972 233.089 180.58 233.196 180.179 233.196C179.227 233.196 178.536 232.963 178.107 232.496C177.687 232.02 177.477 231.306 177.477 230.354V225.762H179.073V230.2C179.073 230.835 179.194 231.283 179.437 231.544C179.679 231.805 180.02 231.936 180.459 231.936C180.795 231.936 181.075 231.885 181.299 231.782C181.523 231.679 181.705 231.544 181.845 231.376C181.985 231.199 182.083 230.989 182.139 230.746C182.204 230.503 182.237 230.242 182.237 229.962V225.762H183.833V233ZM190.486 228.744C190.467 228.492 190.411 228.249 190.318 228.016C190.234 227.783 190.112 227.582 189.954 227.414C189.804 227.237 189.618 227.097 189.394 226.994C189.179 226.882 188.936 226.826 188.666 226.826C188.386 226.826 188.129 226.877 187.896 226.98C187.672 227.073 187.476 227.209 187.308 227.386C187.149 227.554 187.018 227.755 186.916 227.988C186.822 228.221 186.771 228.473 186.762 228.744H190.486ZM186.762 229.794C186.762 230.074 186.799 230.345 186.874 230.606C186.958 230.867 187.079 231.096 187.238 231.292C187.396 231.488 187.597 231.647 187.84 231.768C188.082 231.88 188.372 231.936 188.708 231.936C189.174 231.936 189.548 231.838 189.828 231.642C190.117 231.437 190.332 231.133 190.472 230.732H191.984C191.9 231.124 191.755 231.474 191.55 231.782C191.344 232.09 191.097 232.351 190.808 232.566C190.518 232.771 190.192 232.925 189.828 233.028C189.473 233.14 189.1 233.196 188.708 233.196C188.138 233.196 187.634 233.103 187.196 232.916C186.757 232.729 186.384 232.468 186.076 232.132C185.777 231.796 185.548 231.395 185.39 230.928C185.24 230.461 185.166 229.948 185.166 229.388C185.166 228.875 185.245 228.389 185.404 227.932C185.572 227.465 185.805 227.059 186.104 226.714C186.412 226.359 186.78 226.079 187.21 225.874C187.639 225.669 188.124 225.566 188.666 225.566C189.235 225.566 189.744 225.687 190.192 225.93C190.649 226.163 191.027 226.476 191.326 226.868C191.624 227.26 191.839 227.713 191.97 228.226C192.11 228.73 192.147 229.253 192.082 229.794H186.762ZM199.651 233H198.083V231.992H198.055C197.859 232.356 197.565 232.65 197.173 232.874C196.79 233.089 196.398 233.196 195.997 233.196C195.045 233.196 194.354 232.963 193.925 232.496C193.505 232.02 193.295 231.306 193.295 230.354V225.762H194.891V230.2C194.891 230.835 195.012 231.283 195.255 231.544C195.498 231.805 195.838 231.936 196.277 231.936C196.613 231.936 196.893 231.885 197.117 231.782C197.341 231.679 197.523 231.544 197.663 231.376C197.803 231.199 197.901 230.989 197.957 230.746C198.022 230.503 198.055 230.242 198.055 229.962V225.762H199.651V233ZM206.304 228.744C206.285 228.492 206.229 228.249 206.136 228.016C206.052 227.783 205.931 227.582 205.772 227.414C205.623 227.237 205.436 227.097 205.212 226.994C204.997 226.882 204.755 226.826 204.484 226.826C204.204 226.826 203.947 226.877 203.714 226.98C203.49 227.073 203.294 227.209 203.126 227.386C202.967 227.554 202.837 227.755 202.734 227.988C202.641 228.221 202.589 228.473 202.58 228.744H206.304ZM202.58 229.794C202.58 230.074 202.617 230.345 202.692 230.606C202.776 230.867 202.897 231.096 203.056 231.292C203.215 231.488 203.415 231.647 203.658 231.768C203.901 231.88 204.19 231.936 204.526 231.936C204.993 231.936 205.366 231.838 205.646 231.642C205.935 231.437 206.15 231.133 206.29 230.732H207.802C207.718 231.124 207.573 231.474 207.368 231.782C207.163 232.09 206.915 232.351 206.626 232.566C206.337 232.771 206.01 232.925 205.646 233.028C205.291 233.14 204.918 233.196 204.526 233.196C203.957 233.196 203.453 233.103 203.014 232.916C202.575 232.729 202.202 232.468 201.894 232.132C201.595 231.796 201.367 231.395 201.208 230.928C201.059 230.461 200.984 229.948 200.984 229.388C200.984 228.875 201.063 228.389 201.222 227.932C201.39 227.465 201.623 227.059 201.922 226.714C202.23 226.359 202.599 226.079 203.028 225.874C203.457 225.669 203.943 225.566 204.484 225.566C205.053 225.566 205.562 225.687 206.01 225.93C206.467 226.163 206.845 226.476 207.144 226.868C207.443 227.26 207.657 227.713 207.788 228.226C207.928 228.73 207.965 229.253 207.9 229.794H202.58Z" fill="black"/>
<path d="M488.212 236.668C488.212 237.051 488.277 237.377 488.408 237.648C488.539 237.919 488.721 238.143 488.954 238.32C489.187 238.488 489.453 238.614 489.752 238.698C490.06 238.773 490.391 238.81 490.746 238.81C491.129 238.81 491.455 238.768 491.726 238.684C491.997 238.591 492.216 238.474 492.384 238.334C492.552 238.194 492.673 238.035 492.748 237.858C492.823 237.671 492.86 237.485 492.86 237.298C492.86 236.915 492.771 236.635 492.594 236.458C492.426 236.271 492.239 236.141 492.034 236.066C491.679 235.935 491.264 235.814 490.788 235.702C490.321 235.581 489.743 235.427 489.052 235.24C488.623 235.128 488.263 234.983 487.974 234.806C487.694 234.619 487.47 234.414 487.302 234.19C487.134 233.966 487.013 233.728 486.938 233.476C486.873 233.224 486.84 232.967 486.84 232.706C486.84 232.202 486.943 231.768 487.148 231.404C487.363 231.031 487.643 230.723 487.988 230.48C488.333 230.237 488.725 230.06 489.164 229.948C489.603 229.827 490.046 229.766 490.494 229.766C491.017 229.766 491.507 229.836 491.964 229.976C492.431 230.107 492.837 230.307 493.182 230.578C493.537 230.849 493.817 231.185 494.022 231.586C494.227 231.978 494.33 232.435 494.33 232.958H492.58C492.533 232.314 492.314 231.861 491.922 231.6C491.53 231.329 491.031 231.194 490.424 231.194C490.219 231.194 490.009 231.217 489.794 231.264C489.579 231.301 489.383 231.371 489.206 231.474C489.029 231.567 488.879 231.698 488.758 231.866C488.646 232.034 488.59 232.244 488.59 232.496C488.59 232.851 488.697 233.131 488.912 233.336C489.136 233.532 489.425 233.681 489.78 233.784C489.817 233.793 489.962 233.835 490.214 233.91C490.475 233.975 490.765 234.05 491.082 234.134C491.399 234.218 491.707 234.302 492.006 234.386C492.314 234.461 492.533 234.517 492.664 234.554C492.991 234.657 493.275 234.797 493.518 234.974C493.761 235.151 493.961 235.357 494.12 235.59C494.288 235.814 494.409 236.057 494.484 236.318C494.568 236.579 494.61 236.841 494.61 237.102C494.61 237.662 494.493 238.143 494.26 238.544C494.036 238.936 493.737 239.258 493.364 239.51C492.991 239.762 492.566 239.944 492.09 240.056C491.614 240.177 491.129 240.238 490.634 240.238C490.065 240.238 489.528 240.168 489.024 240.028C488.52 239.888 488.081 239.673 487.708 239.384C487.335 239.095 487.036 238.726 486.812 238.278C486.588 237.821 486.471 237.284 486.462 236.668H488.212ZM495.96 230.004H497.556V231.516H495.96V230.004ZM495.96 232.762H497.556V240H495.96V232.762ZM505.987 239.622C505.987 240.714 505.679 241.526 505.063 242.058C504.456 242.599 503.579 242.87 502.431 242.87C502.067 242.87 501.698 242.833 501.325 242.758C500.961 242.683 500.625 242.557 500.317 242.38C500.018 242.203 499.766 241.969 499.561 241.68C499.356 241.391 499.234 241.036 499.197 240.616H500.793C500.84 240.84 500.919 241.022 501.031 241.162C501.143 241.302 501.274 241.409 501.423 241.484C501.582 241.568 501.754 241.619 501.941 241.638C502.128 241.666 502.324 241.68 502.529 241.68C503.173 241.68 503.644 241.521 503.943 241.204C504.242 240.887 504.391 240.429 504.391 239.832V238.726H504.363C504.139 239.127 503.831 239.44 503.439 239.664C503.056 239.888 502.641 240 502.193 240C501.614 240 501.12 239.902 500.709 239.706C500.308 239.501 499.972 239.225 499.701 238.88C499.44 238.525 499.248 238.119 499.127 237.662C499.006 237.205 498.945 236.715 498.945 236.192C498.945 235.707 499.02 235.245 499.169 234.806C499.318 234.367 499.533 233.985 499.813 233.658C500.093 233.322 500.434 233.056 500.835 232.86C501.246 232.664 501.708 232.566 502.221 232.566C502.678 232.566 503.098 232.664 503.481 232.86C503.864 233.047 504.158 233.345 504.363 233.756H504.391V232.762H505.987V239.622ZM502.445 238.74C502.8 238.74 503.098 238.67 503.341 238.53C503.593 238.381 503.794 238.189 503.943 237.956C504.102 237.713 504.214 237.443 504.279 237.144C504.354 236.836 504.391 236.528 504.391 236.22C504.391 235.912 504.354 235.613 504.279 235.324C504.204 235.035 504.088 234.778 503.929 234.554C503.78 234.33 503.579 234.153 503.327 234.022C503.084 233.891 502.79 233.826 502.445 233.826C502.09 233.826 501.792 233.901 501.549 234.05C501.306 234.199 501.11 234.395 500.961 234.638C500.812 234.871 500.704 235.142 500.639 235.45C500.574 235.749 500.541 236.047 500.541 236.346C500.541 236.645 500.578 236.939 500.653 237.228C500.728 237.508 500.84 237.76 500.989 237.984C501.148 238.208 501.344 238.39 501.577 238.53C501.82 238.67 502.109 238.74 502.445 238.74ZM507.594 232.762H509.106V233.826L509.134 233.854C509.377 233.453 509.694 233.14 510.086 232.916C510.478 232.683 510.912 232.566 511.388 232.566C512.181 232.566 512.807 232.771 513.264 233.182C513.721 233.593 513.95 234.209 513.95 235.03V240H512.354V235.45C512.335 234.881 512.214 234.47 511.99 234.218C511.766 233.957 511.416 233.826 510.94 233.826C510.669 233.826 510.427 233.877 510.212 233.98C509.997 234.073 509.815 234.209 509.666 234.386C509.517 234.554 509.4 234.755 509.316 234.988C509.232 235.221 509.19 235.469 509.19 235.73V240H507.594V232.762ZM521.695 238.39C521.695 238.586 521.718 238.726 521.765 238.81C521.821 238.894 521.924 238.936 522.073 238.936C522.12 238.936 522.176 238.936 522.241 238.936C522.306 238.936 522.381 238.927 522.465 238.908V240.014C522.409 240.033 522.334 240.051 522.241 240.07C522.157 240.098 522.068 240.121 521.975 240.14C521.882 240.159 521.788 240.173 521.695 240.182C521.602 240.191 521.522 240.196 521.457 240.196C521.13 240.196 520.86 240.131 520.645 240C520.43 239.869 520.29 239.641 520.225 239.314C519.908 239.622 519.516 239.846 519.049 239.986C518.592 240.126 518.148 240.196 517.719 240.196C517.392 240.196 517.08 240.149 516.781 240.056C516.482 239.972 516.216 239.846 515.983 239.678C515.759 239.501 515.577 239.281 515.437 239.02C515.306 238.749 515.241 238.437 515.241 238.082C515.241 237.634 515.32 237.27 515.479 236.99C515.647 236.71 515.862 236.491 516.123 236.332C516.394 236.173 516.692 236.061 517.019 235.996C517.355 235.921 517.691 235.865 518.027 235.828C518.316 235.772 518.592 235.735 518.853 235.716C519.114 235.688 519.343 235.646 519.539 235.59C519.744 235.534 519.903 235.45 520.015 235.338C520.136 235.217 520.197 235.039 520.197 234.806C520.197 234.601 520.146 234.433 520.043 234.302C519.95 234.171 519.828 234.073 519.679 234.008C519.539 233.933 519.38 233.887 519.203 233.868C519.026 233.84 518.858 233.826 518.699 233.826C518.251 233.826 517.882 233.919 517.593 234.106C517.304 234.293 517.14 234.582 517.103 234.974H515.507C515.535 234.507 515.647 234.12 515.843 233.812C516.039 233.504 516.286 233.257 516.585 233.07C516.893 232.883 517.238 232.753 517.621 232.678C518.004 232.603 518.396 232.566 518.797 232.566C519.152 232.566 519.502 232.603 519.847 232.678C520.192 232.753 520.5 232.874 520.771 233.042C521.051 233.21 521.275 233.429 521.443 233.7C521.611 233.961 521.695 234.283 521.695 234.666V238.39ZM520.099 236.374C519.856 236.533 519.558 236.631 519.203 236.668C518.848 236.696 518.494 236.743 518.139 236.808C517.971 236.836 517.808 236.878 517.649 236.934C517.49 236.981 517.35 237.051 517.229 237.144C517.108 237.228 517.01 237.345 516.935 237.494C516.87 237.634 516.837 237.807 516.837 238.012C516.837 238.189 516.888 238.339 516.991 238.46C517.094 238.581 517.215 238.679 517.355 238.754C517.504 238.819 517.663 238.866 517.831 238.894C518.008 238.922 518.167 238.936 518.307 238.936C518.484 238.936 518.676 238.913 518.881 238.866C519.086 238.819 519.278 238.74 519.455 238.628C519.642 238.516 519.796 238.376 519.917 238.208C520.038 238.031 520.099 237.816 520.099 237.564V236.374ZM523.454 230.004H525.05V240H523.454V230.004ZM526.831 230.004H528.427V231.516H526.831V230.004ZM526.831 232.762H528.427V240H526.831V232.762ZM530.166 232.762H531.678V233.826L531.706 233.854C531.949 233.453 532.266 233.14 532.658 232.916C533.05 232.683 533.484 232.566 533.96 232.566C534.754 232.566 535.379 232.771 535.836 233.182C536.294 233.593 536.522 234.209 536.522 235.03V240H534.926V235.45C534.908 234.881 534.786 234.47 534.562 234.218C534.338 233.957 533.988 233.826 533.512 233.826C533.242 233.826 532.999 233.877 532.784 233.98C532.57 234.073 532.388 234.209 532.238 234.386C532.089 234.554 531.972 234.755 531.888 234.988C531.804 235.221 531.762 235.469 531.762 235.73V240H530.166V232.762ZM544.897 239.622C544.897 240.714 544.589 241.526 543.973 242.058C543.367 242.599 542.489 242.87 541.341 242.87C540.977 242.87 540.609 242.833 540.235 242.758C539.871 242.683 539.535 242.557 539.227 242.38C538.929 242.203 538.677 241.969 538.471 241.68C538.266 241.391 538.145 241.036 538.107 240.616H539.703C539.75 240.84 539.829 241.022 539.941 241.162C540.053 241.302 540.184 241.409 540.333 241.484C540.492 241.568 540.665 241.619 540.851 241.638C541.038 241.666 541.234 241.68 541.439 241.68C542.083 241.68 542.555 241.521 542.853 241.204C543.152 240.887 543.301 240.429 543.301 239.832V238.726H543.273C543.049 239.127 542.741 239.44 542.349 239.664C541.967 239.888 541.551 240 541.103 240C540.525 240 540.03 239.902 539.619 239.706C539.218 239.501 538.882 239.225 538.611 238.88C538.35 238.525 538.159 238.119 538.037 237.662C537.916 237.205 537.855 236.715 537.855 236.192C537.855 235.707 537.93 235.245 538.079 234.806C538.229 234.367 538.443 233.985 538.723 233.658C539.003 233.322 539.344 233.056 539.745 232.86C540.156 232.664 540.618 232.566 541.131 232.566C541.589 232.566 542.009 232.664 542.391 232.86C542.774 233.047 543.068 233.345 543.273 233.756H543.301V232.762H544.897V239.622ZM541.355 238.74C541.71 238.74 542.009 238.67 542.251 238.53C542.503 238.381 542.704 238.189 542.853 237.956C543.012 237.713 543.124 237.443 543.189 237.144C543.264 236.836 543.301 236.528 543.301 236.22C543.301 235.912 543.264 235.613 543.189 235.324C543.115 235.035 542.998 234.778 542.839 234.554C542.69 234.33 542.489 234.153 542.237 234.022C541.995 233.891 541.701 233.826 541.355 233.826C541.001 233.826 540.702 233.901 540.459 234.05C540.217 234.199 540.021 234.395 539.871 234.638C539.722 234.871 539.615 235.142 539.549 235.45C539.484 235.749 539.451 236.047 539.451 236.346C539.451 236.645 539.489 236.939 539.563 237.228C539.638 237.508 539.75 237.76 539.899 237.984C540.058 238.208 540.254 238.39 540.487 238.53C540.73 238.67 541.019 238.74 541.355 238.74ZM550.443 230.004H552.039V233.7H552.067C552.179 233.523 552.314 233.364 552.473 233.224C552.631 233.084 552.804 232.967 552.991 232.874C553.187 232.771 553.387 232.697 553.593 232.65C553.807 232.594 554.017 232.566 554.223 232.566C554.792 232.566 555.287 232.669 555.707 232.874C556.136 233.07 556.491 233.345 556.771 233.7C557.051 234.045 557.261 234.451 557.401 234.918C557.541 235.385 557.611 235.884 557.611 236.416C557.611 236.901 557.545 237.373 557.415 237.83C557.293 238.287 557.102 238.693 556.841 239.048C556.589 239.393 556.267 239.673 555.875 239.888C555.483 240.093 555.021 240.196 554.489 240.196C554.246 240.196 553.999 240.177 553.747 240.14C553.504 240.112 553.271 240.051 553.047 239.958C552.823 239.865 552.617 239.743 552.431 239.594C552.253 239.445 552.104 239.249 551.983 239.006H551.955V240H550.443V230.004ZM556.015 236.388C556.015 236.061 555.973 235.744 555.889 235.436C555.805 235.128 555.679 234.857 555.511 234.624C555.343 234.381 555.133 234.19 554.881 234.05C554.629 233.901 554.339 233.826 554.013 233.826C553.341 233.826 552.832 234.059 552.487 234.526C552.151 234.993 551.983 235.613 551.983 236.388C551.983 236.752 552.025 237.093 552.109 237.41C552.202 237.718 552.337 237.984 552.515 238.208C552.692 238.432 552.902 238.609 553.145 238.74C553.397 238.871 553.686 238.936 554.013 238.936C554.377 238.936 554.685 238.861 554.937 238.712C555.189 238.563 555.394 238.371 555.553 238.138C555.721 237.895 555.837 237.625 555.903 237.326C555.977 237.018 556.015 236.705 556.015 236.388ZM559.001 230.004H560.597V240H559.001V230.004ZM565.654 240.196C565.075 240.196 564.557 240.103 564.1 239.916C563.652 239.72 563.269 239.454 562.952 239.118C562.644 238.782 562.406 238.381 562.238 237.914C562.079 237.447 562 236.934 562 236.374C562 235.823 562.079 235.315 562.238 234.848C562.406 234.381 562.644 233.98 562.952 233.644C563.269 233.308 563.652 233.047 564.1 232.86C564.557 232.664 565.075 232.566 565.654 232.566C566.233 232.566 566.746 232.664 567.194 232.86C567.651 233.047 568.034 233.308 568.342 233.644C568.659 233.98 568.897 234.381 569.056 234.848C569.224 235.315 569.308 235.823 569.308 236.374C569.308 236.934 569.224 237.447 569.056 237.914C568.897 238.381 568.659 238.782 568.342 239.118C568.034 239.454 567.651 239.72 567.194 239.916C566.746 240.103 566.233 240.196 565.654 240.196ZM565.654 238.936C566.009 238.936 566.317 238.861 566.578 238.712C566.839 238.563 567.054 238.367 567.222 238.124C567.39 237.881 567.511 237.611 567.586 237.312C567.67 237.004 567.712 236.691 567.712 236.374C567.712 236.066 567.67 235.758 567.586 235.45C567.511 235.142 567.39 234.871 567.222 234.638C567.054 234.395 566.839 234.199 566.578 234.05C566.317 233.901 566.009 233.826 565.654 233.826C565.299 233.826 564.991 233.901 564.73 234.05C564.469 234.199 564.254 234.395 564.086 234.638C563.918 234.871 563.792 235.142 563.708 235.45C563.633 235.758 563.596 236.066 563.596 236.374C563.596 236.691 563.633 237.004 563.708 237.312C563.792 237.611 563.918 237.881 564.086 238.124C564.254 238.367 564.469 238.563 564.73 238.712C564.991 238.861 565.299 238.936 565.654 238.936ZM575.521 235.184C575.456 234.736 575.274 234.4 574.975 234.176C574.686 233.943 574.317 233.826 573.869 233.826C573.664 233.826 573.444 233.863 573.211 233.938C572.978 234.003 572.763 234.134 572.567 234.33C572.371 234.517 572.208 234.783 572.077 235.128C571.946 235.464 571.881 235.907 571.881 236.458C571.881 236.757 571.914 237.055 571.979 237.354C572.054 237.653 572.166 237.919 572.315 238.152C572.474 238.385 572.674 238.577 572.917 238.726C573.16 238.866 573.454 238.936 573.799 238.936C574.266 238.936 574.648 238.791 574.947 238.502C575.255 238.213 575.446 237.807 575.521 237.284H577.117C576.968 238.227 576.608 238.95 576.039 239.454C575.479 239.949 574.732 240.196 573.799 240.196C573.23 240.196 572.726 240.103 572.287 239.916C571.858 239.72 571.494 239.459 571.195 239.132C570.896 238.796 570.668 238.399 570.509 237.942C570.36 237.485 570.285 236.99 570.285 236.458C570.285 235.917 570.36 235.408 570.509 234.932C570.658 234.456 570.882 234.045 571.181 233.7C571.48 233.345 571.848 233.07 572.287 232.874C572.735 232.669 573.258 232.566 573.855 232.566C574.275 232.566 574.672 232.622 575.045 232.734C575.428 232.837 575.764 232.995 576.053 233.21C576.352 233.425 576.594 233.695 576.781 234.022C576.968 234.349 577.08 234.736 577.117 235.184H575.521ZM578.456 230.004H580.052V235.688L582.936 232.762H584.896L582.124 235.422L585.162 240H583.216L581.004 236.486L580.052 237.41V240H578.456V230.004Z" fill="black"/>
<path d="M399.01 202.85H401.05C401.35 202.85 401.6 202.767 401.8 202.6C402 202.427 402.1 202.18 402.1 201.86C402.1 201.5 402.01 201.247 401.83 201.1C401.65 200.953 401.39 200.88 401.05 200.88H399.01V202.85ZM397.76 199.86H401.23C401.87 199.86 402.383 200.007 402.77 200.3C403.157 200.593 403.35 201.037 403.35 201.63C403.35 201.99 403.26 202.3 403.08 202.56C402.907 202.813 402.657 203.01 402.33 203.15V203.17C402.77 203.263 403.103 203.473 403.33 203.8C403.557 204.12 403.67 204.523 403.67 205.01C403.67 205.29 403.62 205.553 403.52 205.8C403.42 206.04 403.263 206.25 403.05 206.43C402.837 206.603 402.563 206.743 402.23 206.85C401.897 206.95 401.5 207 401.04 207H397.76V199.86ZM399.01 205.98H401.22C401.6 205.98 401.893 205.883 402.1 205.69C402.313 205.49 402.42 205.21 402.42 204.85C402.42 204.497 402.313 204.227 402.1 204.04C401.893 203.847 401.6 203.75 401.22 203.75H399.01V205.98ZM404.671 199.86H405.811V207H404.671V199.86ZM409.423 207.14C409.01 207.14 408.64 207.073 408.313 206.94C407.993 206.8 407.72 206.61 407.493 206.37C407.273 206.13 407.103 205.843 406.983 205.51C406.87 205.177 406.813 204.81 406.813 204.41C406.813 204.017 406.87 203.653 406.983 203.32C407.103 202.987 407.273 202.7 407.493 202.46C407.72 202.22 407.993 202.033 408.313 201.9C408.64 201.76 409.01 201.69 409.423 201.69C409.836 201.69 410.203 201.76 410.523 201.9C410.85 202.033 411.123 202.22 411.343 202.46C411.57 202.7 411.74 202.987 411.853 203.32C411.973 203.653 412.033 204.017 412.033 204.41C412.033 204.81 411.973 205.177 411.853 205.51C411.74 205.843 411.57 206.13 411.343 206.37C411.123 206.61 410.85 206.8 410.523 206.94C410.203 207.073 409.836 207.14 409.423 207.14ZM409.423 206.24C409.676 206.24 409.896 206.187 410.083 206.08C410.27 205.973 410.423 205.833 410.543 205.66C410.663 205.487 410.75 205.293 410.803 205.08C410.863 204.86 410.893 204.637 410.893 204.41C410.893 204.19 410.863 203.97 410.803 203.75C410.75 203.53 410.663 203.337 410.543 203.17C410.423 202.997 410.27 202.857 410.083 202.75C409.896 202.643 409.676 202.59 409.423 202.59C409.17 202.59 408.95 202.643 408.763 202.75C408.576 202.857 408.423 202.997 408.303 203.17C408.183 203.337 408.093 203.53 408.033 203.75C407.98 203.97 407.953 204.19 407.953 204.41C407.953 204.637 407.98 204.86 408.033 205.08C408.093 205.293 408.183 205.487 408.303 205.66C408.423 205.833 408.576 205.973 408.763 206.08C408.95 206.187 409.17 206.24 409.423 206.24ZM416.471 203.56C416.424 203.24 416.294 203 416.081 202.84C415.874 202.673 415.611 202.59 415.291 202.59C415.144 202.59 414.988 202.617 414.821 202.67C414.654 202.717 414.501 202.81 414.361 202.95C414.221 203.083 414.104 203.273 414.011 203.52C413.918 203.76 413.871 204.077 413.871 204.47C413.871 204.683 413.894 204.897 413.941 205.11C413.994 205.323 414.074 205.513 414.181 205.68C414.294 205.847 414.438 205.983 414.611 206.09C414.784 206.19 414.994 206.24 415.241 206.24C415.574 206.24 415.848 206.137 416.061 205.93C416.281 205.723 416.418 205.433 416.471 205.06H417.611C417.504 205.733 417.248 206.25 416.841 206.61C416.441 206.963 415.908 207.14 415.241 207.14C414.834 207.14 414.474 207.073 414.161 206.94C413.854 206.8 413.594 206.613 413.381 206.38C413.168 206.14 413.004 205.857 412.891 205.53C412.784 205.203 412.731 204.85 412.731 204.47C412.731 204.083 412.784 203.72 412.891 203.38C412.998 203.04 413.158 202.747 413.371 202.5C413.584 202.247 413.848 202.05 414.161 201.91C414.481 201.763 414.854 201.69 415.281 201.69C415.581 201.69 415.864 201.73 416.131 201.81C416.404 201.883 416.644 201.997 416.851 202.15C417.064 202.303 417.238 202.497 417.371 202.73C417.504 202.963 417.584 203.24 417.611 203.56H416.471ZM418.568 199.86H419.708V203.92L421.768 201.83H423.168L421.188 203.73L423.358 207H421.968L420.388 204.49L419.708 205.15V207H418.568V199.86Z" fill="black"/>
<path d="M484.01 202.85H486.05C486.35 202.85 486.6 202.767 486.8 202.6C487 202.427 487.1 202.18 487.1 201.86C487.1 201.5 487.01 201.247 486.83 201.1C486.65 200.953 486.39 200.88 486.05 200.88H484.01V202.85ZM482.76 199.86H486.23C486.87 199.86 487.383 200.007 487.77 200.3C488.157 200.593 488.35 201.037 488.35 201.63C488.35 201.99 488.26 202.3 488.08 202.56C487.907 202.813 487.657 203.01 487.33 203.15V203.17C487.77 203.263 488.103 203.473 488.33 203.8C488.557 204.12 488.67 204.523 488.67 205.01C488.67 205.29 488.62 205.553 488.52 205.8C488.42 206.04 488.263 206.25 488.05 206.43C487.837 206.603 487.563 206.743 487.23 206.85C486.897 206.95 486.5 207 486.04 207H482.76V199.86ZM484.01 205.98H486.22C486.6 205.98 486.893 205.883 487.1 205.69C487.313 205.49 487.42 205.21 487.42 204.85C487.42 204.497 487.313 204.227 487.1 204.04C486.893 203.847 486.6 203.75 486.22 203.75H484.01V205.98ZM489.671 199.86H490.811V207H489.671V199.86ZM494.423 207.14C494.01 207.14 493.64 207.073 493.313 206.94C492.993 206.8 492.72 206.61 492.493 206.37C492.273 206.13 492.103 205.843 491.983 205.51C491.87 205.177 491.813 204.81 491.813 204.41C491.813 204.017 491.87 203.653 491.983 203.32C492.103 202.987 492.273 202.7 492.493 202.46C492.72 202.22 492.993 202.033 493.313 201.9C493.64 201.76 494.01 201.69 494.423 201.69C494.836 201.69 495.203 201.76 495.523 201.9C495.85 202.033 496.123 202.22 496.343 202.46C496.57 202.7 496.74 202.987 496.853 203.32C496.973 203.653 497.033 204.017 497.033 204.41C497.033 204.81 496.973 205.177 496.853 205.51C496.74 205.843 496.57 206.13 496.343 206.37C496.123 206.61 495.85 206.8 495.523 206.94C495.203 207.073 494.836 207.14 494.423 207.14ZM494.423 206.24C494.676 206.24 494.896 206.187 495.083 206.08C495.27 205.973 495.423 205.833 495.543 205.66C495.663 205.487 495.75 205.293 495.803 205.08C495.863 204.86 495.893 204.637 495.893 204.41C495.893 204.19 495.863 203.97 495.803 203.75C495.75 203.53 495.663 203.337 495.543 203.17C495.423 202.997 495.27 202.857 495.083 202.75C494.896 202.643 494.676 202.59 494.423 202.59C494.17 202.59 493.95 202.643 493.763 202.75C493.576 202.857 493.423 202.997 493.303 203.17C493.183 203.337 493.093 203.53 493.033 203.75C492.98 203.97 492.953 204.19 492.953 204.41C492.953 204.637 492.98 204.86 493.033 205.08C493.093 205.293 493.183 205.487 493.303 205.66C493.423 205.833 493.576 205.973 493.763 206.08C493.95 206.187 494.17 206.24 494.423 206.24ZM501.471 203.56C501.424 203.24 501.294 203 501.081 202.84C500.874 202.673 500.611 202.59 500.291 202.59C500.144 202.59 499.988 202.617 499.821 202.67C499.654 202.717 499.501 202.81 499.361 202.95C499.221 203.083 499.104 203.273 499.011 203.52C498.918 203.76 498.871 204.077 498.871 204.47C498.871 204.683 498.894 204.897 498.941 205.11C498.994 205.323 499.074 205.513 499.181 205.68C499.294 205.847 499.438 205.983 499.611 206.09C499.784 206.19 499.994 206.24 500.241 206.24C500.574 206.24 500.848 206.137 501.061 205.93C501.281 205.723 501.418 205.433 501.471 205.06H502.611C502.504 205.733 502.248 206.25 501.841 206.61C501.441 206.963 500.908 207.14 500.241 207.14C499.834 207.14 499.474 207.073 499.161 206.94C498.854 206.8 498.594 206.613 498.381 206.38C498.168 206.14 498.004 205.857 497.891 205.53C497.784 205.203 497.731 204.85 497.731 204.47C497.731 204.083 497.784 203.72 497.891 203.38C497.998 203.04 498.158 202.747 498.371 202.5C498.584 202.247 498.848 202.05 499.161 201.91C499.481 201.763 499.854 201.69 500.281 201.69C500.581 201.69 500.864 201.73 501.131 201.81C501.404 201.883 501.644 201.997 501.851 202.15C502.064 202.303 502.238 202.497 502.371 202.73C502.504 202.963 502.584 203.24 502.611 203.56H501.471ZM503.568 199.86H504.708V203.92L506.768 201.83H508.168L506.188 203.73L508.358 207H506.968L505.388 204.49L504.708 205.15V207H503.568V199.86Z" fill="black"/>
<path d="M569.01 202.85H571.05C571.35 202.85 571.6 202.767 571.8 202.6C572 202.427 572.1 202.18 572.1 201.86C572.1 201.5 572.01 201.247 571.83 201.1C571.65 200.953 571.39 200.88 571.05 200.88H569.01V202.85ZM567.76 199.86H571.23C571.87 199.86 572.383 200.007 572.77 200.3C573.157 200.593 573.35 201.037 573.35 201.63C573.35 201.99 573.26 202.3 573.08 202.56C572.907 202.813 572.657 203.01 572.33 203.15V203.17C572.77 203.263 573.103 203.473 573.33 203.8C573.557 204.12 573.67 204.523 573.67 205.01C573.67 205.29 573.62 205.553 573.52 205.8C573.42 206.04 573.263 206.25 573.05 206.43C572.837 206.603 572.563 206.743 572.23 206.85C571.897 206.95 571.5 207 571.04 207H567.76V199.86ZM569.01 205.98H571.22C571.6 205.98 571.893 205.883 572.1 205.69C572.313 205.49 572.42 205.21 572.42 204.85C572.42 204.497 572.313 204.227 572.1 204.04C571.893 203.847 571.6 203.75 571.22 203.75H569.01V205.98ZM574.671 199.86H575.811V207H574.671V199.86ZM579.423 207.14C579.01 207.14 578.64 207.073 578.313 206.94C577.993 206.8 577.72 206.61 577.493 206.37C577.273 206.13 577.103 205.843 576.983 205.51C576.87 205.177 576.813 204.81 576.813 204.41C576.813 204.017 576.87 203.653 576.983 203.32C577.103 202.987 577.273 202.7 577.493 202.46C577.72 202.22 577.993 202.033 578.313 201.9C578.64 201.76 579.01 201.69 579.423 201.69C579.836 201.69 580.203 201.76 580.523 201.9C580.85 202.033 581.123 202.22 581.343 202.46C581.57 202.7 581.74 202.987 581.853 203.32C581.973 203.653 582.033 204.017 582.033 204.41C582.033 204.81 581.973 205.177 581.853 205.51C581.74 205.843 581.57 206.13 581.343 206.37C581.123 206.61 580.85 206.8 580.523 206.94C580.203 207.073 579.836 207.14 579.423 207.14ZM579.423 206.24C579.676 206.24 579.896 206.187 580.083 206.08C580.27 205.973 580.423 205.833 580.543 205.66C580.663 205.487 580.75 205.293 580.803 205.08C580.863 204.86 580.893 204.637 580.893 204.41C580.893 204.19 580.863 203.97 580.803 203.75C580.75 203.53 580.663 203.337 580.543 203.17C580.423 202.997 580.27 202.857 580.083 202.75C579.896 202.643 579.676 202.59 579.423 202.59C579.17 202.59 578.95 202.643 578.763 202.75C578.576 202.857 578.423 202.997 578.303 203.17C578.183 203.337 578.093 203.53 578.033 203.75C577.98 203.97 577.953 204.19 577.953 204.41C577.953 204.637 577.98 204.86 578.033 205.08C578.093 205.293 578.183 205.487 578.303 205.66C578.423 205.833 578.576 205.973 578.763 206.08C578.95 206.187 579.17 206.24 579.423 206.24ZM586.471 203.56C586.424 203.24 586.294 203 586.081 202.84C585.874 202.673 585.611 202.59 585.291 202.59C585.144 202.59 584.988 202.617 584.821 202.67C584.654 202.717 584.501 202.81 584.361 202.95C584.221 203.083 584.104 203.273 584.011 203.52C583.918 203.76 583.871 204.077 583.871 204.47C583.871 204.683 583.894 204.897 583.941 205.11C583.994 205.323 584.074 205.513 584.181 205.68C584.294 205.847 584.438 205.983 584.611 206.09C584.784 206.19 584.994 206.24 585.241 206.24C585.574 206.24 585.848 206.137 586.061 205.93C586.281 205.723 586.418 205.433 586.471 205.06H587.611C587.504 205.733 587.248 206.25 586.841 206.61C586.441 206.963 585.908 207.14 585.241 207.14C584.834 207.14 584.474 207.073 584.161 206.94C583.854 206.8 583.594 206.613 583.381 206.38C583.168 206.14 583.004 205.857 582.891 205.53C582.784 205.203 582.731 204.85 582.731 204.47C582.731 204.083 582.784 203.72 582.891 203.38C582.998 203.04 583.158 202.747 583.371 202.5C583.584 202.247 583.848 202.05 584.161 201.91C584.481 201.763 584.854 201.69 585.281 201.69C585.581 201.69 585.864 201.73 586.131 201.81C586.404 201.883 586.644 201.997 586.851 202.15C587.064 202.303 587.238 202.497 587.371 202.73C587.504 202.963 587.584 203.24 587.611 203.56H586.471ZM588.568 199.86H589.708V203.92L591.768 201.83H593.168L591.188 203.73L593.358 207H591.968L590.388 204.49L589.708 205.15V207H588.568V199.86Z" fill="black"/>
<path d="M654.01 202.85H656.05C656.35 202.85 656.6 202.767 656.8 202.6C657 202.427 657.1 202.18 657.1 201.86C657.1 201.5 657.01 201.247 656.83 201.1C656.65 200.953 656.39 200.88 656.05 200.88H654.01V202.85ZM652.76 199.86H656.23C656.87 199.86 657.383 200.007 657.77 200.3C658.157 200.593 658.35 201.037 658.35 201.63C658.35 201.99 658.26 202.3 658.08 202.56C657.907 202.813 657.657 203.01 657.33 203.15V203.17C657.77 203.263 658.103 203.473 658.33 203.8C658.557 204.12 658.67 204.523 658.67 205.01C658.67 205.29 658.62 205.553 658.52 205.8C658.42 206.04 658.263 206.25 658.05 206.43C657.837 206.603 657.563 206.743 657.23 206.85C656.897 206.95 656.5 207 656.04 207H652.76V199.86ZM654.01 205.98H656.22C656.6 205.98 656.893 205.883 657.1 205.69C657.313 205.49 657.42 205.21 657.42 204.85C657.42 204.497 657.313 204.227 657.1 204.04C656.893 203.847 656.6 203.75 656.22 203.75H654.01V205.98ZM659.671 199.86H660.811V207H659.671V199.86ZM664.423 207.14C664.01 207.14 663.64 207.073 663.313 206.94C662.993 206.8 662.72 206.61 662.493 206.37C662.273 206.13 662.103 205.843 661.983 205.51C661.87 205.177 661.813 204.81 661.813 204.41C661.813 204.017 661.87 203.653 661.983 203.32C662.103 202.987 662.273 202.7 662.493 202.46C662.72 202.22 662.993 202.033 663.313 201.9C663.64 201.76 664.01 201.69 664.423 201.69C664.836 201.69 665.203 201.76 665.523 201.9C665.85 202.033 666.123 202.22 666.343 202.46C666.57 202.7 666.74 202.987 666.853 203.32C666.973 203.653 667.033 204.017 667.033 204.41C667.033 204.81 666.973 205.177 666.853 205.51C666.74 205.843 666.57 206.13 666.343 206.37C666.123 206.61 665.85 206.8 665.523 206.94C665.203 207.073 664.836 207.14 664.423 207.14ZM664.423 206.24C664.676 206.24 664.896 206.187 665.083 206.08C665.27 205.973 665.423 205.833 665.543 205.66C665.663 205.487 665.75 205.293 665.803 205.08C665.863 204.86 665.893 204.637 665.893 204.41C665.893 204.19 665.863 203.97 665.803 203.75C665.75 203.53 665.663 203.337 665.543 203.17C665.423 202.997 665.27 202.857 665.083 202.75C664.896 202.643 664.676 202.59 664.423 202.59C664.17 202.59 663.95 202.643 663.763 202.75C663.576 202.857 663.423 202.997 663.303 203.17C663.183 203.337 663.093 203.53 663.033 203.75C662.98 203.97 662.953 204.19 662.953 204.41C662.953 204.637 662.98 204.86 663.033 205.08C663.093 205.293 663.183 205.487 663.303 205.66C663.423 205.833 663.576 205.973 663.763 206.08C663.95 206.187 664.17 206.24 664.423 206.24ZM671.471 203.56C671.424 203.24 671.294 203 671.081 202.84C670.874 202.673 670.611 202.59 670.291 202.59C670.144 202.59 669.988 202.617 669.821 202.67C669.654 202.717 669.501 202.81 669.361 202.95C669.221 203.083 669.104 203.273 669.011 203.52C668.918 203.76 668.871 204.077 668.871 204.47C668.871 204.683 668.894 204.897 668.941 205.11C668.994 205.323 669.074 205.513 669.181 205.68C669.294 205.847 669.438 205.983 669.611 206.09C669.784 206.19 669.994 206.24 670.241 206.24C670.574 206.24 670.848 206.137 671.061 205.93C671.281 205.723 671.418 205.433 671.471 205.06H672.611C672.504 205.733 672.248 206.25 671.841 206.61C671.441 206.963 670.908 207.14 670.241 207.14C669.834 207.14 669.474 207.073 669.161 206.94C668.854 206.8 668.594 206.613 668.381 206.38C668.168 206.14 668.004 205.857 667.891 205.53C667.784 205.203 667.731 204.85 667.731 204.47C667.731 204.083 667.784 203.72 667.891 203.38C667.998 203.04 668.158 202.747 668.371 202.5C668.584 202.247 668.848 202.05 669.161 201.91C669.481 201.763 669.854 201.69 670.281 201.69C670.581 201.69 670.864 201.73 671.131 201.81C671.404 201.883 671.644 201.997 671.851 202.15C672.064 202.303 672.238 202.497 672.371 202.73C672.504 202.963 672.584 203.24 672.611 203.56H671.471ZM673.568 199.86H674.708V203.92L676.768 201.83H678.168L676.188 203.73L678.358 207H676.968L675.388 204.49L674.708 205.15V207H673.568V199.86Z" fill="black"/>
<rect x="361" y="61" width="350" height="190" rx="5" stroke="black" stroke-width="2"/>
<line x1="373" y1="191.5" x2="693" y2="191.5" stroke="black"/>
<path d="M452.646 191.354C452.842 191.549 453.158 191.549 453.354 191.354L456.536 188.172C456.731 187.976 456.731 187.66 456.536 187.464C456.34 187.269 456.024 187.269 455.828 187.464L453 190.293L450.172 187.464C449.976 187.269 449.66 187.269 449.464 187.464C449.269 187.66 449.269 187.976 449.464 188.172L452.646 191.354ZM452.5 143L452.5 191L453.5 191L453.5 143L452.5 143Z" fill="black"/>
<path d="M532.646 192.354C532.842 192.549 533.158 192.549 533.354 192.354L536.536 189.172C536.731 188.976 536.731 188.66 536.536 188.464C536.34 188.269 536.024 188.269 535.828 188.464L533 191.293L530.172 188.464C529.976 188.269 529.66 188.269 529.464 188.464C529.269 188.66 529.269 188.976 529.464 189.172L532.646 192.354ZM532.5 143L532.5 192L533.5 192L533.5 143L532.5 143Z" fill="black"/>
<path d="M612.646 192.354C612.842 192.549 613.158 192.549 613.354 192.354L616.536 189.172C616.731 188.976 616.731 188.66 616.536 188.464C616.34 188.269 616.024 188.269 615.828 188.464L613 191.293L610.172 188.464C609.976 188.269 609.66 188.269 609.464 188.464C609.269 188.66 609.269 188.976 609.464 189.172L612.646 192.354ZM612.5 143L612.5 192L613.5 192L613.5 143L612.5 143Z" fill="black"/>
<line x1="453" y1="147.5" x2="466" y2="147.5" stroke="black"/>
<circle cx="470" cy="147" r="3.5" fill="#C4C4C4" stroke="black"/>
<circle cx="478" cy="147" r="3.5" fill="#2AC355" stroke="black"/>
<line x1="533" y1="147.5" x2="546" y2="147.5" stroke="black"/>
<circle cx="550" cy="147" r="4" fill="#C4C4C4"/>
<circle cx="550" cy="147" r="3.5" fill="#FF0000" stroke="black"/>
<circle cx="558" cy="147" r="3.5" fill="#C4C4C4" stroke="black"/>
<line x1="613" y1="147.5" x2="626" y2="147.5" stroke="black"/>
<circle cx="630" cy="147" r="4" fill="#C4C4C4"/>
<circle cx="630" cy="147" r="3.5" fill="#C4C4C4" stroke="black"/>
<circle cx="638" cy="147" r="3.5" fill="#2AC355" stroke="black"/>
</svg>
